<?xml version="1.0" encoding="UTF-8" standalone="no"?>
<!DOCTYPE svg PUBLIC "-//W3C//DTD SVG 1.1//EN" "http://www.w3.org/Graphics/SVG/1.1/DTD/svg11.dtd">
<!-- Created with Vectornator (http://vectornator.io/) -->
<svg height="100%" stroke-miterlimit="10" style="fill-rule:nonzero;clip-rule:evenodd;stroke-linecap:round;stroke-linejoin:round;" version="1.1" viewBox="0 0 476.79 299.25" width="100%" xml:space="preserve" xmlns="http://www.w3.org/2000/svg" xmlns:vectornator="http://vectornator.io" xmlns:xlink="http://www.w3.org/1999/xlink">
<defs/>
<clipPath id="ArtboardFrame">
<rect height="299.25" width="476.79" x="0" y="0"/>
</clipPath>
<g clip-path="url(#ArtboardFrame)" id="Untitled" vectornator:layerName="Untitled">
<path d="M385.143 200.247C385.148 200.251 385.148 200.251 385.143 200.256C384.764 205.342 380.461 209.666 374.871 209.641C366.347 209.606 359.589 209.567 358.603 209.541L358.194 209.533L101.385 209.533C98.0468 209.533 95.1778 207.991 93.3308 205.661C91.2888 203.094 90.4918 199.575 91.6808 196.129C92.9428 192.464 94.3558 188.868 95.9018 185.336C96.6558 183.618 97.4388 181.916 98.2578 180.232C103.129 170.209 109.133 160.798 116.115 152.15C116.154 152.098 116.197 152.047 116.236 151.999C127.279 138.354 140.751 126.613 156.038 117.379C168.037 110.122 181.156 104.414 195.085 100.534C195.098 100.534 195.111 100.53 195.124 100.525C208.773 96.7314 223.206 94.6984 238.13 94.6984C249.914 94.6984 261.388 95.9644 272.414 98.3684C272.431 98.3724 272.445 98.3724 272.461 98.3764C287.29 101.611 301.306 106.895 314.171 113.903C331.955 123.59 347.539 136.571 360.011 151.982C360.016 151.986 360.02 151.991 360.025 151.999C364.758 157.848 369.047 164.046 372.838 170.55C373.333 171.398 373.82 172.255 374.298 173.121C375.724 175.68 377.072 178.281 378.342 180.93C378.347 180.938 378.351 180.947 378.355 180.955C378.36 180.964 378.364 180.977 378.369 180.986C378.907 182.114 379.432 183.247 379.945 184.393C381.065 186.899 382.116 189.445 383.093 192.025C383.533 193.175 383.955 194.329 384.36 195.492C384.45 195.742 384.536 195.992 384.622 196.246C385.083 197.589 385.247 198.942 385.143 200.247" fill="#fbb03b" fill-rule="nonzero" opacity="1" stroke="none" vectornator:layerName="path"/>
<path d="M236.453 107.276C190.587 107.276 153.422 144.478 153.422 190.344C153.422 190.569 153.457 190.783 153.459 191.007L319.485 191.007C319.486 190.783 319.521 190.569 319.521 190.344C319.522 144.478 282.319 107.276 236.453 107.276Z" fill="#ce623b" fill-rule="nonzero" opacity="1" stroke="none" vectornator:layerName="Curve 3"/>
<path d="M315.37 118.188L309.666 129.602L312.565 129.697L307.934 141.319L310.826 141.413L306.305 152.921L360.4 153.214L336.847 129.242L321.799 119.079C321.799 119.079 319.391 123.538 319.391 123.526C319.391 123.514 315.37 118.188 315.37 118.188Z" fill="#838f4c" fill-rule="nonzero" opacity="1" stroke="none" vectornator:layerName="Curve 4"/>
<path d="M160.301 118.188L166.001 129.602L163.104 129.697L167.731 141.319L164.842 141.413L169.359 152.921L115.307 153.214L138.841 129.242L153.878 119.079C153.878 119.079 156.283 123.538 156.283 123.526C156.283 123.514 160.301 118.188 160.301 118.188Z" fill="#838f4c" fill-rule="nonzero" opacity="1" stroke="none" vectornator:layerName="Curve 5"/>
<path d="M384.058 202.31C384.053 202.314 384.053 202.323 384.049 202.331C383.787 202.986 383.429 203.611 382.977 204.197C381.383 206.251 378.976 207.431 376.37 207.431C376.37 207.431 363.164 207.664 351.332 207.883C341.745 208.064 333.062 208.232 333.045 208.263L101.32 208.263C95.4498 208.263 91.1338 202.732 92.5848 197.042C93.5158 193.399 94.6188 189.811 95.8888 186.284C95.9708 186.06 96.0478 185.835 96.1348 185.616C96.2248 185.366 96.3198 185.112 96.4188 184.862C96.9958 183.303 97.6118 181.761 98.2578 180.232C102.5 170.184 108.108 160.712 114.883 151.999L362.01 151.999C362.94 153.283 363.845 154.588 364.715 155.914C365.33 156.84 365.929 157.779 366.515 158.723C368.879 162.534 370.982 166.493 372.989 170.498C373.432 171.373 373.868 172.247 374.298 173.121C375.41 175.37 376.503 177.622 377.61 179.87C378.097 180.856 378.614 181.852 379.135 182.847C379.402 183.359 379.673 183.876 379.945 184.393C380.569 185.59 381.185 186.8 381.758 188.028C382.891 190.444 383.856 192.921 384.36 195.492C384.458 195.992 384.54 196.496 384.601 197.004C384.618 197.137 384.63 197.275 384.644 197.409C384.807 199.14 384.661 200.811 384.058 202.31" fill="#004dff" fill-rule="nonzero" opacity="1" stroke="none" vectornator:layerName="path"/>
<path d="M375.326 209.058L330.911 209.058C338.005 197.437 352.851 177.155 373.275 170.397C377.971 179.063 381.609 188.255 384.056 197.838C385.508 203.528 381.196 209.058 375.326 209.058" fill="#5298dd" fill-rule="nonzero" opacity="1" stroke="none" vectornator:layerName="path"/>
<path d="M299.777 147.518C299.755 147.639 299.716 147.755 299.677 147.871C299.643 147.996 299.604 148.117 299.574 148.237C299.527 148.453 299.527 148.642 299.527 148.793L299.522 148.892C299.522 149.047 299.333 149.327 299.191 149.534C299.126 149.628 299.066 149.719 299.014 149.805C298.928 149.943 298.872 150.068 298.807 150.197C298.786 150.245 298.764 150.292 298.739 150.344C298.704 150.413 298.639 150.503 298.571 150.593C298.51 150.68 298.446 150.766 298.389 150.856C298.381 150.873 298.368 150.891 298.36 150.908C298.291 151.024 298.217 151.141 298.148 151.252L297.946 151.584C297.937 151.597 297.924 151.61 297.916 151.622C297.787 151.791 297.666 151.967 297.546 152.144L297.541 152.148L297.408 152.346C297.343 152.437 297.287 152.527 297.227 152.618C297.128 152.777 297.042 152.911 296.938 153.027C296.77 153.207 296.679 153.389 296.606 153.539C296.581 153.595 296.55 153.651 296.516 153.712C296.464 153.789 296.275 153.888 296.137 153.966L296.034 154.022C295.659 154.228 295.353 154.491 295.155 154.672C295.078 154.741 294.992 154.797 294.91 154.853C294.776 154.948 294.621 155.056 294.474 155.202C294.276 155.395 294.074 155.577 293.872 155.758C293.756 155.861 293.639 155.964 293.523 156.072C293.225 156.339 292.967 156.632 292.721 156.912C292.476 157.187 292.248 157.446 291.998 157.674C291.309 158.299 290.616 158.988 289.879 159.72C288.109 161.473 286.283 163.29 284.383 164.333C283.681 164.716 283.005 164.966 282.35 165.207C280.735 165.802 279.211 166.366 278.026 168.674C277.263 170.169 276.876 171.797 276.502 173.369C276.415 173.744 276.325 174.114 276.234 174.485C275.791 176.25 275.217 177.999 274.533 179.701L226.556 179.701L223.477 167.899L223.115 167.929C215.801 168.562 207.08 171.749 197.186 177.405C195.916 178.133 194.632 178.899 193.332 179.701L162.937 179.701C162.98 179.446 163.023 179.197 163.07 178.951C163.384 177.323 163.824 175.932 164.41 174.696C165.064 173.313 165.904 172.155 166.908 171.254C167.084 171.091 167.296 170.953 167.519 170.802C167.777 170.63 168.045 170.453 168.295 170.225C168.527 170.014 168.704 169.773 168.863 169.566C168.928 169.476 168.992 169.39 169.061 169.303C169.186 169.148 169.324 169.002 169.466 168.855C169.643 168.67 169.828 168.476 170 168.252C170.043 168.196 170.095 168.144 170.147 168.089C170.25 167.981 170.366 167.86 170.469 167.701C170.539 167.598 170.599 167.49 170.659 167.382C170.719 167.279 170.776 167.176 170.849 167.072C171.034 166.801 171.266 166.469 171.374 166.077C171.387 166.026 171.409 165.978 171.43 165.927C171.478 165.819 171.533 165.685 171.568 165.521C171.641 165.177 171.645 164.841 171.645 164.544C171.65 164.402 171.663 164.264 171.68 164.122C171.693 164.014 171.701 163.911 171.71 163.803C171.727 163.592 171.723 163.385 171.701 163.187C171.68 162.963 171.637 162.765 171.572 162.589C171.452 162.248 171.232 161.951 170.944 161.736C170.651 161.516 170.327 161.374 170.039 161.245C169.832 161.15 169.63 161.064 169.466 160.956C169.345 160.878 169.216 160.762 169.083 160.642C168.829 160.414 168.54 160.151 168.152 160.004C167.907 159.91 167.666 159.754 167.412 159.531C167.364 159.487 167.317 159.44 167.274 159.397C167.175 159.298 167.063 159.186 166.925 159.087C166.856 159.035 166.783 158.988 166.714 158.94C166.645 158.893 166.576 158.85 166.516 158.798C166.382 158.699 166.352 158.514 166.313 158.109C166.292 157.876 166.261 157.618 166.184 157.355C166.021 156.817 166.068 156.253 166.141 155.62C166.236 154.849 166.391 154.082 166.606 153.337C166.623 153.277 166.645 153.216 166.667 153.152C166.753 152.893 166.873 152.544 166.8 152.148C166.8 152.118 166.791 152.083 166.783 152.053C166.744 151.907 166.77 151.782 166.843 151.515L166.89 151.334C166.908 151.265 166.916 151.201 166.925 151.136C166.929 151.119 166.929 151.097 166.933 151.08C166.955 151.007 166.981 150.934 167.02 150.856C167.032 150.817 167.05 150.779 167.071 150.735C167.222 150.416 167.339 150.085 167.45 149.77L167.528 149.555C167.73 149 167.928 148.556 168.157 148.156C168.213 148.057 168.277 147.957 168.342 147.863C168.398 147.781 168.454 147.699 168.501 147.617C168.557 147.531 168.596 147.449 168.631 147.367C168.648 147.337 168.656 147.307 168.673 147.281C168.915 147.07 169.173 146.868 169.414 146.691C169.527 146.609 169.647 146.545 169.763 146.476C169.849 146.424 169.936 146.377 170.022 146.321C170.116 146.265 170.203 146.2 170.289 146.131C170.34 146.093 170.392 146.054 170.444 146.019C170.569 145.942 170.689 145.855 170.81 145.774C170.909 145.701 171.012 145.627 171.116 145.562C171.288 145.455 171.547 145.382 171.796 145.304L171.994 145.244C172.709 145.02 173.493 145.003 174.303 145.003L175.35 145.003C175.737 144.998 176.026 145.029 176.366 145.084C176.624 145.128 176.865 145.141 177.098 145.149C177.382 145.158 177.65 145.171 177.873 145.244C178.201 145.351 178.532 145.434 178.851 145.515C179.084 145.571 179.317 145.627 179.549 145.696C179.889 145.8 180.225 145.916 180.561 146.032L180.992 146.183C181.069 146.208 181.13 146.243 181.246 146.33C181.496 146.519 181.754 146.614 181.983 146.7C182.142 146.76 182.284 146.812 182.383 146.881C182.693 147.092 182.926 147.449 183.184 147.837L183.218 147.884C183.386 148.138 183.481 148.293 183.473 148.444C183.451 148.715 183.262 149.021 183.076 149.28C182.99 149.405 182.896 149.525 182.801 149.65C182.529 149.999 182.228 150.387 182.043 150.856C181.987 151.011 181.94 151.175 181.909 151.347C181.858 151.644 181.883 151.915 181.94 152.148C181.965 152.26 181.995 152.368 182.026 152.458C182.081 152.622 182.146 152.786 182.206 152.945C182.288 153.161 182.37 153.363 182.422 153.561C182.529 153.953 182.538 154.375 182.534 154.732L182.529 154.956C182.525 155.335 182.521 155.727 182.495 156.098C182.482 156.274 182.452 156.447 182.43 156.623C182.4 156.804 182.374 156.985 182.361 157.166C182.348 157.278 182.344 157.39 182.336 157.502C182.322 157.653 182.31 157.803 182.297 157.954C182.254 158.355 182.155 158.63 181.983 158.85C181.853 159.005 181.685 159.16 181.435 159.35C181.349 159.418 181.255 159.479 181.16 159.539C181.078 159.591 180.996 159.643 180.919 159.694C180.781 159.789 180.677 159.896 180.583 159.987C180.54 160.03 180.496 160.078 180.449 160.116C180.264 160.267 180.148 160.444 180.057 160.581C180.023 160.633 179.992 160.685 179.954 160.732C179.872 160.827 179.769 160.922 179.661 161.025L179.575 161.102C179.299 161.365 178.782 161.848 178.778 162.58C178.774 162.804 178.743 163.032 178.709 163.278L178.674 163.553C178.64 163.851 178.614 164.152 178.589 164.449C178.571 164.608 178.558 164.768 178.541 164.927L178.481 165.582L179.135 165.634C180.742 165.767 182.641 165.733 184.515 164.518C185.824 163.669 187.258 163.239 189.313 163.088C192.845 162.826 195.352 161.916 198.246 159.841C199.663 158.829 200.365 157.476 200.124 156.223C199.969 155.426 199.43 154.698 198.647 154.224C198.306 154.018 198.009 153.905 197.746 153.807C197.38 153.664 197.156 153.578 196.928 153.294C196.695 153.001 196.488 152.579 196.291 152.148C196.269 152.092 196.243 152.04 196.217 151.984C196.144 151.825 196.067 151.662 195.989 151.502C195.894 151.3 195.791 151.101 195.679 150.916L195.645 150.856L195.378 150.416C195.003 149.792 194.615 149.168 194.297 148.518C193.917 147.759 193.62 146.976 193.512 146.148C193.319 144.654 193.448 142.914 193.865 141.372C193.964 141.015 194.047 140.635 194.132 140.235C194.382 139.08 194.667 137.767 195.386 137.043C195.868 136.561 197.221 136.247 198.03 136.061C198.177 136.027 198.311 135.993 198.436 135.962C198.69 135.902 198.944 135.846 199.202 135.798L199.207 135.798C201.506 135.338 203.914 135.294 206.201 135.294L206.631 135.29C207.265 135.286 207.868 135.282 208.462 135.364C209.108 135.45 209.759 135.532 210.409 135.605C210.465 135.613 210.534 135.618 210.611 135.622C210.685 135.626 210.831 135.631 210.883 135.652C210.943 135.686 211.034 135.729 211.141 135.764L211.219 135.786C211.425 135.846 211.602 135.897 211.796 135.984C211.813 136.022 211.835 136.061 211.856 136.104C211.981 136.324 212.119 136.514 212.253 136.699C212.416 136.923 212.571 137.134 212.662 137.353C213.032 138.232 213.192 138.917 213.152 139.498C213.149 139.567 213.131 139.636 213.118 139.705C213.088 139.834 213.067 139.963 213.058 140.093L213.054 140.187C213.045 140.239 213.032 140.291 213.019 140.347L212.985 140.515C212.959 140.64 212.933 140.769 212.911 140.894C212.899 140.989 212.873 141.079 212.847 141.169C212.825 141.264 212.799 141.355 212.787 141.428L212.765 141.471C212.731 141.544 212.7 141.617 212.67 141.708C212.636 141.829 212.601 141.94 212.58 142.065L212.511 142.414C212.472 142.608 212.502 142.759 212.524 142.858L212.537 142.91C212.558 143.03 212.589 143.181 212.662 143.336C212.795 143.685 213.183 145.989 213.187 146.446C213.166 146.54 213.097 146.76 213.075 146.808C213.015 146.907 212.959 147.01 212.903 147.113C212.86 147.191 212.821 147.268 212.774 147.346C212.688 147.479 212.403 148.014 211.921 148.948C211.882 149.017 211.568 149.672 211.49 149.874C211.468 149.917 211.425 150.042 211.369 150.197C211.309 150.37 211.197 150.688 211.132 150.856C211.124 150.882 211.115 150.903 211.107 150.921C211.077 150.951 211.042 150.985 211.008 151.024C210.857 151.175 210.728 151.304 210.659 151.476C210.654 151.485 210.65 151.494 210.65 151.502C210.633 151.545 210.624 151.584 210.616 151.619C210.603 151.631 210.59 151.648 210.577 151.662C210.439 151.842 210.375 151.924 210.327 152.028C210.31 152.066 210.297 152.105 210.289 152.148C210.241 152.32 210.25 152.553 210.293 153.001L210.319 153.35C210.336 153.63 210.353 153.923 210.413 154.22C210.431 154.293 210.444 154.371 210.457 154.448C210.474 154.552 210.491 154.655 210.508 154.732C210.517 154.789 210.534 154.926 210.624 155.073C210.805 155.357 211.077 155.426 211.197 155.452C211.477 155.52 212.007 155.65 212.429 155.352C212.705 155.163 212.856 154.853 212.963 154.629L213.015 154.534C213.152 154.271 213.265 154.004 213.372 153.746C213.502 153.432 213.627 153.135 213.79 152.872C213.825 152.816 213.863 152.76 213.902 152.704C213.984 152.592 214.07 152.467 214.148 152.316C214.178 152.26 214.204 152.204 214.23 152.148C214.281 152.036 214.32 151.92 214.359 151.816C214.384 151.747 214.41 151.679 214.441 151.61C214.458 151.571 214.471 151.537 214.492 151.502C214.557 151.364 214.634 151.226 214.716 151.084C214.759 151.011 214.807 150.934 214.85 150.856C214.888 150.791 214.923 150.723 214.957 150.654L215.052 150.468C215.138 150.292 215.22 150.12 215.319 149.973C215.5 149.697 215.694 149.431 215.883 149.164L216.202 148.724C216.361 148.496 216.512 148.28 216.68 148.078C216.779 147.957 216.874 147.832 216.969 147.704C217.059 147.583 217.154 147.458 217.253 147.337C217.455 147.096 217.636 146.842 217.813 146.601C217.989 146.355 218.157 146.127 218.339 145.912C218.377 145.869 222.456 140.876 222.637 140.584C222.818 140.338 224.342 138.809 225.075 138.077C226.013 137.143 226.013 137.138 226.069 137.048C226.251 136.755 226.237 136.466 226.225 136.277L226.225 136.216C226.234 135.79 226.892 129.062 227.211 125.875C227.228 125.716 227.25 125.548 227.271 125.38C227.353 124.764 227.448 124.066 227.293 123.403C227.202 123.002 227.026 122.641 226.875 122.322L226.776 122.115C226.741 122.038 226.715 121.956 226.686 121.878C226.617 121.676 226.53 121.426 226.345 121.18C226.208 120.995 226.104 120.746 225.996 120.482C225.884 120.207 225.768 119.923 225.609 119.682C225.492 119.445 225.144 118.346 225.148 118.062C225.148 117.941 225.144 117.812 225.139 117.679C225.127 117.455 225.118 117.222 225.152 117.076C225.165 117.028 225.204 116.955 225.23 116.899C225.355 116.899 225.475 116.886 225.596 116.877C225.695 116.869 225.785 116.865 225.872 116.86L225.897 116.886C226.001 116.985 226.401 117.489 226.543 117.683C226.591 117.881 226.668 118.23 226.673 118.385C226.681 118.51 226.69 118.704 226.789 118.911C226.931 119.216 227.155 119.393 227.319 119.497L227.366 119.531C227.555 119.69 227.844 119.927 228.223 119.85C228.43 119.81 228.607 119.677 228.706 119.488C228.818 119.272 228.8 119.053 228.783 118.885L228.783 118.484C228.783 118.2 228.71 117.92 228.636 117.648C228.589 117.468 228.533 117.261 228.533 117.144C228.533 117.059 228.529 116.972 228.525 116.916C228.538 116.602 228.977 115.06 229.381 113.721C229.679 112.738 229.955 111.86 230.032 111.658C230.062 111.601 230.152 111.489 230.226 111.403C230.277 111.339 230.329 111.278 230.372 111.222C230.394 111.201 230.471 111.153 230.519 111.123C230.584 111.084 230.648 111.046 230.713 111.003C230.786 110.947 230.855 110.891 230.928 110.83C230.984 110.783 231.053 110.723 231.053 110.718C231.091 110.714 231.131 110.723 231.169 110.727C231.234 110.736 231.294 110.74 231.363 110.744C231.867 110.77 232.332 111.003 232.681 111.399C232.892 111.64 233.06 111.95 233.232 112.278L233.439 112.648C233.521 112.799 233.611 112.945 233.633 113.057L233.633 113.061C233.637 113.104 233.633 113.152 233.629 113.195C233.629 113.247 233.624 113.298 233.624 113.35L233.624 114.948C233.624 115.064 233.615 115.176 233.611 115.289C233.603 115.435 233.594 115.581 233.594 115.732C233.598 115.943 233.581 116.145 233.538 116.382L233.504 116.585C233.486 116.697 233.469 116.813 233.443 116.925C233.418 117.024 233.383 117.123 233.349 117.222C233.301 117.369 233.245 117.528 233.207 117.705L233.129 118.079C232.978 118.76 232.926 119.001 232.914 119.135C232.896 119.221 232.84 119.406 232.789 119.578C232.724 119.793 232.664 120 232.647 120.078L232.633 120.151C232.599 120.336 232.56 120.521 232.534 120.706C232.457 121.224 232.319 121.796 232.117 122.455C232.044 122.688 231.97 122.916 231.88 123.119L231.845 123.192C231.794 123.295 231.725 123.437 231.691 123.622C231.643 123.859 231.587 124.092 231.505 124.35C231.432 124.592 231.372 124.833 231.316 125.074C231.285 125.203 231.251 125.332 231.216 125.461C231.195 125.552 231.169 125.638 231.143 125.725C231.091 125.901 231.04 126.073 231.006 126.254C230.963 126.448 230.889 127.042 230.777 127.934C230.717 128.425 230.639 129.041 230.618 129.144C230.553 129.463 230.566 129.782 230.579 130.061C230.579 130.152 230.584 130.243 230.584 130.333C230.588 130.678 230.523 132.784 230.493 133.49C230.471 133.959 230.476 135.743 230.48 136.923L230.48 139.033C230.485 139.287 230.485 139.404 230.42 139.533L230.329 139.722C230.17 140.058 230.032 140.351 229.842 140.618C229.657 140.881 229.494 141.152 229.339 141.411L229.296 141.488C229.016 141.962 227.745 144.262 226.729 146.114C226.109 147.243 225.574 148.207 225.415 148.492L225.329 148.638C225.092 149.064 224.842 149.499 224.627 149.956C224.549 150.124 224.385 150.468 224.2 150.856C224.149 150.964 224.092 151.071 224.041 151.184C223.989 151.291 223.938 151.399 223.886 151.502C223.77 151.739 223.662 151.967 223.576 152.148C223.507 152.29 223.451 152.407 223.417 152.48C223.275 152.786 223.106 153.087 222.93 153.402C222.68 153.841 222.426 154.293 222.232 154.784C222.15 154.995 222.06 155.202 221.969 155.409C221.793 155.809 221.612 156.223 221.483 156.666C221.457 156.757 221.405 156.865 221.353 156.981C221.263 157.17 221.159 157.386 221.112 157.64C220.996 158.226 221.371 158.63 221.491 158.76C221.577 158.859 221.672 158.919 221.741 158.966C221.754 158.988 221.771 159.014 221.788 159.044C222.021 159.375 222.297 159.591 222.615 159.685C222.693 159.711 222.775 159.728 222.852 159.746C222.943 159.768 223.016 159.785 223.076 159.81C223.481 159.987 223.886 160.06 224.278 160.129C224.394 160.146 224.506 160.168 224.618 160.189C224.98 160.263 225.342 160.314 225.695 160.366C226.216 160.439 226.712 160.508 227.185 160.642C227.827 160.827 229.52 160.465 229.881 159.974C230.01 159.797 230.166 159.638 230.329 159.466C230.485 159.307 230.635 159.147 230.777 158.975C230.98 158.721 231.6 157.92 231.716 157.76C231.862 157.571 232.018 157.179 232.311 156.373L232.405 156.123C232.448 156.012 232.513 155.87 232.586 155.706C233.017 154.741 233.353 153.893 233.142 153.259C232.969 152.743 232.517 152.407 232.022 152.148C231.755 152.01 231.471 151.894 231.212 151.791C231.044 151.722 230.889 151.662 230.769 151.601C230.704 151.571 230.639 151.537 230.579 151.502C230.226 151.321 229.881 151.11 229.671 150.856C229.58 150.753 229.515 150.637 229.481 150.512C229.386 150.154 229.554 149.71 229.769 149.211C229.959 148.763 230.135 148.306 230.317 147.841C230.704 146.846 231.105 145.812 231.626 144.938C231.699 144.813 231.794 144.693 231.893 144.563C232.056 144.352 232.242 144.111 232.375 143.81C232.595 143.327 232.625 142.853 232.647 142.436C232.668 142.143 232.681 141.872 232.763 141.639C232.815 141.484 232.948 141.337 233.103 141.161L233.31 140.928C233.629 140.54 233.926 140.11 234.244 139.572C234.412 139.291 234.624 138.943 234.77 138.572L234.821 138.439C234.895 138.249 234.934 138.154 235.011 138.077C235.041 138.042 235.071 138.008 235.102 137.974C235.136 137.935 235.166 137.896 235.196 137.87C235.222 137.853 235.252 137.844 235.282 137.831C235.369 137.797 235.489 137.746 235.614 137.659C235.687 137.607 235.752 137.547 235.821 137.487C235.851 137.461 235.881 137.431 235.911 137.409C235.928 137.401 235.95 137.392 235.967 137.384C236.053 137.349 236.135 137.31 236.213 137.259C236.338 137.172 236.467 137.073 236.596 136.97C236.798 136.807 237.009 136.634 237.169 136.621C237.337 136.604 237.509 136.578 237.677 136.548C237.845 136.522 238.009 136.497 238.177 136.483C238.866 136.423 239.374 136.423 239.9 136.41C240.046 136.41 240.188 136.406 240.335 136.41C240.455 136.41 240.585 136.436 240.735 136.466C240.839 136.483 240.942 136.505 241.049 136.518C241.226 136.539 241.416 136.552 241.644 136.552L241.648 136.552C241.894 136.552 242.096 136.531 242.286 136.488C242.522 136.432 242.729 136.341 242.915 136.259C243.001 136.221 243.087 136.186 243.173 136.152C243.333 136.096 243.501 136.048 243.673 136.014C244.357 135.876 245.098 135.936 245.74 136.001C245.839 136.014 245.947 136.044 246.072 136.083C246.179 136.117 246.292 136.152 246.408 136.173L246.592 136.216C246.687 136.238 246.778 136.259 246.869 136.277C246.972 136.298 247.075 136.298 247.191 136.298C247.217 136.298 247.243 136.302 247.278 136.298C247.33 136.324 247.385 136.35 247.441 136.363L247.541 136.393L247.717 136.384C247.73 136.384 247.739 136.389 247.752 136.393C247.834 136.41 247.911 136.427 247.997 136.432C248.122 136.445 248.272 136.483 248.432 136.522L248.583 136.561C248.729 136.595 248.888 136.66 249.061 136.725L249.233 136.793C249.251 136.802 249.263 136.807 249.276 136.81C249.319 136.862 249.392 136.949 249.505 137.026L249.535 137.043C249.578 137.095 249.625 137.143 249.673 137.19C249.694 137.211 249.719 137.233 249.741 137.259C249.785 137.31 249.828 137.362 249.875 137.414C249.957 137.504 250.025 137.586 250.064 137.659C250.137 137.793 250.194 137.948 250.258 138.111C250.305 138.236 250.353 138.366 250.409 138.491C250.486 138.667 250.486 138.934 250.486 139.171C250.486 139.572 250.439 139.731 250.4 139.795C250.353 139.869 250.327 139.903 250.215 140.002C250.082 140.123 249.948 140.235 249.819 140.351C249.66 140.485 249.5 140.622 249.34 140.765C249.017 141.062 248.72 141.428 248.506 141.798C248.173 142.367 248.17 142.944 248.17 143.456C248.17 143.603 248.17 143.745 248.156 143.892C248.139 144.142 248.139 144.391 248.143 144.645L248.143 145.003L248.139 145.472C248.139 145.584 248.134 145.718 248.161 145.869C248.173 145.959 248.2 146.041 248.229 146.127C248.234 146.144 248.243 146.162 248.247 146.174C248.247 146.191 248.251 146.222 248.251 146.243C248.234 146.286 248.216 146.333 248.204 146.381C248.182 146.472 248.182 146.553 248.182 146.614C248.177 146.635 248.165 146.657 248.122 146.721C248.096 146.764 248.066 146.803 248.04 146.846C247.997 146.902 247.954 146.962 247.92 147.027C247.747 147.298 247.752 147.6 247.752 147.781C247.756 148.168 247.687 148.521 247.527 148.935L247.48 149.051C247.381 149.31 247.264 149.607 247.209 149.938C247.187 150.068 247.183 150.197 247.174 150.331C247.174 150.434 247.17 150.524 247.153 150.589C247.135 150.68 247.089 150.757 247.006 150.856C246.967 150.903 246.924 150.955 246.869 151.016C246.812 151.076 246.756 151.141 246.701 151.205C246.606 151.317 246.511 151.416 246.417 151.502C246.167 151.73 245.89 151.89 245.529 152.097C245.495 152.114 245.46 152.131 245.425 152.148C245.257 152.234 245.081 152.316 244.891 152.407C244.31 152.669 243.655 152.967 243.181 153.522C242.958 153.781 242.708 154.091 242.626 154.418C242.6 154.521 242.6 154.616 242.604 154.694C242.588 154.728 242.566 154.775 242.54 154.819C242.479 154.948 242.398 155.107 242.355 155.31C242.26 155.727 242.178 156.473 242.686 156.735L243.165 156.951L243.501 156.584C243.621 156.451 243.755 156.326 243.883 156.201C244.048 156.042 244.215 155.882 244.362 155.714C244.53 155.551 245.447 155.051 246.188 154.646C248.079 153.617 249.474 152.824 250.017 152.148C250.048 152.118 250.069 152.088 250.09 152.058C250.223 151.872 250.348 151.687 250.473 151.502C250.625 151.283 250.766 151.067 250.904 150.856C253.148 147.389 254.19 144.383 255.044 141.919C255.371 140.984 255.676 140.097 256.004 139.326C257.74 135.243 257.499 130.802 257.265 126.504C257.192 125.19 257.12 123.829 257.106 122.52C257.106 122.309 257.097 122.055 257.046 121.792C256.964 121.327 256.172 117.941 255.875 117.05C255.836 116.929 255.81 116.8 255.784 116.675C255.767 116.576 255.746 116.481 255.719 116.382L255.694 116.283L255.651 116.106C255.616 115.964 255.582 115.827 255.548 115.685L255.5 115.486C255.435 115.211 255.371 114.931 255.323 114.655C255.315 114.603 255.306 114.556 255.301 114.504C255.285 114.393 255.267 114.28 255.246 114.173C255.224 114.091 255.198 114.009 255.176 113.927C255.16 113.875 255.138 113.819 255.13 113.764C255.117 113.69 255.108 113.613 255.103 113.535L255.09 113.385C255.06 113.109 255.001 112.859 254.94 112.614C254.914 112.519 254.888 112.42 254.871 112.325C254.845 112.222 254.806 112.041 254.806 111.946C255.026 111.838 255.301 111.843 255.551 111.959C255.857 112.097 256.137 112.394 256.339 112.794C256.452 113.005 256.52 113.255 256.598 113.518C256.667 113.755 256.736 114 256.843 114.246L257.054 114.746L257.585 114.625C258.248 114.47 258.61 113.699 258.928 113.018C258.997 112.876 259.057 112.747 259.105 112.661C259.139 112.601 259.178 112.545 259.216 112.484C259.26 112.42 259.303 112.355 259.341 112.286C259.377 112.23 259.411 112.183 259.45 112.136C259.488 112.08 259.527 112.028 259.566 111.967C259.618 111.89 259.665 111.808 259.713 111.726C259.738 111.679 259.763 111.632 259.79 111.588L259.815 111.545C259.884 111.442 259.958 111.321 260.022 111.175C260.074 111.055 260.117 110.93 260.156 110.8C260.181 110.727 260.203 110.654 260.238 110.576C260.255 110.529 260.276 110.486 260.302 110.443L260.362 110.335C260.419 110.197 260.449 110.051 260.453 109.9C260.474 109.792 260.548 109.629 260.673 109.426L260.737 109.319C260.758 109.275 260.794 109.22 260.806 109.203C260.892 109.121 261.017 109.035 261.168 108.944C261.714 108.625 262.365 108.591 262.813 108.621C263.205 108.647 263.709 108.862 263.812 109.052C264.045 109.478 264.256 110.202 264.26 110.572L264.26 110.942C264.243 111.063 264.101 111.58 264.028 111.86C263.95 112.14 263.885 112.385 263.869 112.476C263.821 112.734 263.782 112.993 263.744 113.251L263.735 113.303C263.631 114.022 263.533 114.698 263.351 115.353C262.929 116.886 262.107 118.333 261.534 119.259C261.409 119.462 261.298 119.639 261.203 119.785C261.112 119.923 261.039 120.035 260.987 120.121L260.926 120.216C260.828 120.371 260.703 120.569 260.642 120.818C260.626 120.892 260.617 120.956 260.617 121.021C260.341 121.702 260.195 122.511 260.177 123.429C260.169 124.079 261.375 140.273 261.383 140.412C261.418 140.777 261.414 141.161 261.405 141.57C261.4 141.747 261.396 141.928 261.396 142.108C261.396 142.509 261.064 144.809 260.94 145.675C260.896 145.959 260.867 146.17 260.858 146.256C260.81 146.506 260.268 148.143 260.152 148.379C260.143 148.393 259.652 149.379 258.92 150.856L258.596 151.502C258.493 151.709 258.385 151.924 258.278 152.148C256.107 156.511 252.765 163.247 252.222 164.406C251.718 165.478 251.546 166.56 251.735 167.447C251.839 167.938 252.149 168.321 252.657 168.58C252.963 168.739 253.423 168.972 253.941 168.907C254.505 168.834 254.854 168.403 255.044 168.175C255.28 167.886 255.521 167.602 255.762 167.313L255.922 167.128C256.12 166.9 256.323 166.676 256.525 166.448C256.805 166.133 257.097 165.81 257.374 165.47C257.537 165.263 257.658 165.048 257.761 164.858C257.817 164.755 257.873 164.647 257.942 164.548C258.131 164.264 258.351 163.993 258.588 163.704L258.726 163.532C259.1 163.075 259.377 162.58 259.643 162.106C259.781 161.861 259.919 161.615 260.07 161.378C260.501 160.693 261.035 160.009 261.75 159.221L261.93 159.022C262.438 158.467 262.964 157.894 263.343 157.157C263.424 156.989 263.498 156.929 263.601 156.873C263.83 156.744 264.032 156.589 264.226 156.442C264.424 156.291 264.618 156.145 264.803 156.063C264.954 155.995 265.143 155.947 265.35 155.899C265.466 155.874 265.583 155.848 265.695 155.813C265.824 155.779 265.974 155.762 266.19 155.753L266.255 155.753C266.844 155.736 267.457 155.719 268.059 155.628C268.193 155.607 268.352 155.611 268.524 155.615C268.667 155.624 268.808 155.628 268.951 155.62C269.11 155.615 269.244 155.585 269.351 155.56L269.446 155.538C269.541 155.52 269.64 155.495 269.739 155.469C269.851 155.439 269.967 155.409 270.006 155.404L270.071 155.413C270.252 155.435 270.527 155.469 270.777 155.31C271.143 155.077 271.147 154.668 271.147 154.508C271.147 154.379 271.138 154.254 271.131 154.125C271.126 154.043 271.117 153.961 271.117 153.88C271.122 153.363 271.1 152.807 270.795 152.243C270.777 152.208 270.759 152.178 270.738 152.148C270.575 151.872 270.368 151.666 270.148 151.502C269.967 151.36 269.782 151.248 269.605 151.141C269.503 151.076 269.394 151.016 269.291 150.942C269.253 150.916 269.214 150.886 269.179 150.856C269.049 150.753 268.951 150.641 268.878 150.512C268.817 150.404 268.77 150.283 268.71 150.094C268.645 149.878 268.559 149.693 268.477 149.53C268.434 149.443 268.391 149.353 268.356 149.258C268.292 149.103 268.257 148.918 268.245 148.69C268.223 148.302 268.279 147.88 268.408 147.44L268.465 147.26C268.615 146.747 268.774 146.213 268.787 145.593C268.8 145.128 268.96 144.615 269.115 144.171C269.201 143.939 269.356 143.693 269.541 143.418C269.653 143.25 269.752 143.078 269.851 142.901C269.971 142.685 270.088 142.483 270.221 142.315C270.295 142.221 270.368 142.122 270.441 142.026C270.648 141.747 270.829 141.505 271.061 141.329C271.397 141.079 271.763 140.825 272.19 140.687L272.53 140.575C273.189 140.36 273.813 140.153 274.456 140.045C274.658 140.015 274.86 139.972 275.062 139.929C275.317 139.877 275.553 139.826 275.791 139.795C276.118 139.757 276.475 139.765 276.854 139.778C277.035 139.783 277.216 139.787 277.392 139.787L280.839 139.787C281.041 139.787 281.248 139.778 281.506 139.662C281.825 139.52 282.186 139.485 282.518 139.576C282.858 139.666 283.194 139.778 283.551 139.894C283.901 140.011 284.262 140.131 284.632 140.23C284.895 140.304 285.158 140.48 285.378 140.734C285.429 140.799 285.486 140.885 285.546 140.984C285.624 141.114 285.714 141.26 285.839 141.406C286.076 141.686 286.308 141.962 286.532 142.25C286.671 142.427 286.803 142.75 286.846 142.858C286.959 143.142 286.76 143.965 286.424 144.615C286.347 144.762 286.296 144.792 285.964 144.938L285.796 145.016C285.761 145.033 285.722 145.046 285.679 145.063C285.516 145.123 285.313 145.197 285.136 145.351C284.827 145.619 284.818 145.972 284.814 146.127L284.809 146.179C284.805 146.269 284.784 146.355 284.762 146.446C284.723 146.614 284.684 146.803 284.68 147.018C284.676 147.363 284.62 147.725 284.564 148.069C284.512 148.393 284.53 148.728 284.543 149.025C284.547 149.129 284.551 149.237 284.551 149.336C284.555 149.482 284.53 149.663 284.504 149.84L284.491 149.935C284.439 150.081 284.293 150.456 284.133 150.856C283.914 151.399 283.668 151.989 283.595 152.118C283.587 152.127 283.582 152.14 283.573 152.148C283.38 152.445 283.142 152.708 282.893 152.984C282.798 153.087 282.699 153.195 282.604 153.307C282.518 153.402 282.427 153.488 282.333 153.574C282.216 153.686 282.1 153.798 281.993 153.918C281.846 154.082 281.614 154.22 281.368 154.366C281.209 154.461 281.049 154.556 280.903 154.659C280.533 154.922 279.262 155.602 279.007 155.667L278.926 155.676C278.646 155.706 278.125 155.766 277.823 156.279C277.638 156.589 277.642 156.92 277.647 157.123C277.655 157.89 278.181 158.079 278.405 158.161C278.444 158.174 278.491 158.186 278.521 158.204C278.543 158.221 278.56 158.243 278.582 158.264C278.637 158.32 278.689 158.376 278.745 158.419C278.999 158.626 279.288 158.807 279.59 158.945C279.749 159.022 279.913 159.087 280.076 159.156C280.24 159.225 280.408 159.289 280.576 159.371C280.658 159.41 280.782 159.47 280.937 159.496C281.148 159.535 281.334 159.505 281.45 159.479L281.51 159.47C281.678 159.444 281.846 159.423 282.018 159.397C282.29 159.362 282.565 159.328 282.837 159.272C283.22 159.199 283.521 159.039 283.789 158.902C283.892 158.846 283.996 158.794 284.103 158.742C284.168 158.716 284.237 158.695 284.31 158.669C284.383 158.647 284.457 158.622 284.53 158.592C284.762 158.501 284.968 158.376 285.15 158.268C285.245 158.212 285.335 158.157 285.429 158.109C285.796 157.92 286.162 157.743 286.528 157.571C286.709 157.48 286.873 157.381 287.032 157.287C287.153 157.209 287.277 157.131 287.407 157.071C287.532 157.011 287.652 156.942 287.773 156.873C287.872 156.817 287.97 156.757 288.074 156.709C288.333 156.584 288.608 156.447 288.871 156.206C288.949 156.137 289.03 156.085 289.176 156.007C289.383 155.891 289.53 155.762 289.664 155.645C289.707 155.607 289.75 155.568 289.801 155.525L290.047 155.323C290.275 155.137 290.486 154.961 290.718 154.806C290.886 154.698 291.003 154.573 291.093 154.474C291.132 154.435 291.167 154.396 291.21 154.358C291.253 154.323 291.296 154.297 291.343 154.268C291.438 154.207 291.533 154.147 291.619 154.074C291.731 153.983 291.865 153.893 292.01 153.798C292.166 153.699 292.321 153.6 292.464 153.483C292.553 153.414 292.657 153.35 292.756 153.289C292.932 153.182 293.127 153.061 293.298 152.902C293.458 152.751 293.591 152.605 293.713 152.445C293.772 152.398 293.829 152.351 293.872 152.29L293.954 152.196L293.97 152.148L293.992 152.075C293.997 152.058 294.001 152.045 294.006 152.028C294.07 151.958 294.186 151.825 294.233 151.597C294.259 151.485 294.255 151.386 294.247 151.304C294.259 151.278 294.272 151.252 294.281 151.226C294.337 151.089 294.371 150.968 294.401 150.856C294.406 150.83 294.414 150.809 294.419 150.783L294.444 150.68C294.47 150.611 294.522 150.481 294.517 150.283C294.509 149.77 294.401 149.289 294.294 148.823C294.251 148.629 294.208 148.435 294.173 148.242C294.138 148.074 294.1 147.901 294.061 147.729C293.992 147.454 293.932 147.191 293.923 146.941C293.915 146.764 293.992 146.601 294.13 146.493C294.212 146.429 294.388 146.333 294.604 146.394C294.685 146.437 294.892 146.648 295.017 146.768C295.4 147.161 295.797 147.565 296.327 147.389C296.71 147.26 296.934 146.872 297.136 146.532C297.175 146.467 297.205 146.407 297.231 146.368L297.3 146.273C297.481 146.028 297.666 145.774 297.834 145.498L297.894 145.394C297.972 145.27 298.002 145.218 298.08 145.141C298.221 144.998 298.67 144.559 298.859 144.598C298.98 144.62 299.134 144.688 299.29 144.762L299.423 144.822C299.445 144.83 299.463 144.839 299.475 144.848C299.475 144.856 299.475 144.869 299.479 144.882C299.497 145.115 299.552 145.334 299.652 145.571C299.88 146.118 299.919 146.739 299.777 147.518" fill="#624b4e" fill-rule="nonzero" opacity="1" stroke="none" vectornator:layerName="path"/>
<path d="M116.594 172.593L360.201 172.593L351.156 208.586L129.167 208.586L116.594 172.593Z" fill="#a4876e" fill-rule="nonzero" opacity="1" stroke="none" vectornator:layerName="path"/>
<path d="M119.111 205.75L119.107 205.75C119.172 205.664 119.175 205.664 119.111 205.75" fill="#5298dd" fill-rule="nonzero" opacity="1" stroke="none" vectornator:layerName="path"/>
<path d="M264.118 208.345L101.28 208.586C99.8634 208.586 98.5414 208.263 97.3654 207.699C97.3184 207.677 97.2754 207.651 97.2274 207.625C96.2414 207.13 95.3674 206.458 94.6344 205.661C92.8774 203.745 91.9554 201.092 92.3514 198.322C92.3994 198.008 92.4644 197.685 92.5454 197.366C93.4764 193.722 94.5784 190.135 95.8494 186.607C95.9184 186.542 95.9874 186.478 96.0564 186.409L96.2114 186.267C96.3274 186.159 96.4434 186.047 96.5594 185.939C96.6764 185.832 96.7924 185.724 96.9094 185.616L96.9094 185.612C97.0084 185.522 97.1074 185.431 97.2054 185.336C97.3054 185.246 97.4044 185.156 97.5074 185.061L97.5074 185.056C97.5804 184.992 97.6494 184.923 97.7224 184.863C105.604 177.61 114.529 170.654 123.462 166.252L126.252 172.592L129.384 179.703L129.763 180.564L129.845 180.749L130.142 181.426L134.092 190.384C137.882 186.68 141.555 183.682 145.083 181.421C145.548 181.12 146.014 180.831 146.47 180.56C146.982 180.254 147.491 179.97 147.994 179.699C149.812 178.717 151.587 177.937 153.318 177.368C153.934 177.166 154.49 177.007 155.011 176.873L155.351 176.783L156.79 179.699L157.216 180.56L157.638 181.421L167.118 200.627C168.371 199.476 172.308 195.923 177.795 191.59L177.8 191.59C178.127 191.327 178.458 191.069 178.794 190.802C179.148 190.531 179.505 190.251 179.871 189.971C181.146 188.989 182.486 187.981 183.886 186.96C186.59 184.979 189.274 183.127 191.914 181.421C192.366 181.128 192.814 180.844 193.258 180.56C193.719 180.267 194.18 179.983 194.636 179.699C195.937 178.897 197.22 178.131 198.491 177.403C208.384 171.747 217.106 168.56 224.419 167.927L224.781 167.897L227.861 179.699L228.085 180.56L228.313 181.421L229.403 185.612L229.407 185.612L229.743 186.904L234.394 204.731C235.579 203.866 238.715 201.664 242.819 199.447C247.674 196.828 254.922 193.64 261.887 193.352L262.283 193.335L263.906 206.631L264.014 207.492L264.045 207.75L264.118 208.345Z" fill="#5298dd" fill-rule="nonzero" opacity="1" stroke="none" vectornator:layerName="path"/>
<path d="M195.317 102.034C181.737 105.834 168.785 111.43 156.817 118.669C141.67 127.819 128.411 139.352 117.408 152.948L117.288 153.097C110.342 161.701 104.396 171.053 99.6136 180.891C98.8236 182.516 98.0396 184.215 97.2816 185.941C95.7306 189.486 94.3256 193.079 93.1066 196.62C92.1516 199.388 92.6766 202.417 94.5096 204.722C96.1746 206.822 98.6806 208.026 101.385 208.026L358.194 208.026L358.634 208.034C359.553 208.058 365.774 208.096 374.878 208.133L374.919 208.133C379.426 208.133 383.216 204.713 383.628 200.3L383.64 200.128C383.73 198.997 383.581 197.856 383.197 196.735C383.112 196.486 383.029 196.245 382.942 196.005C382.546 194.865 382.125 193.713 381.685 192.563C380.724 190.027 379.675 187.487 378.568 185.008C378.083 183.922 377.579 182.831 377.027 181.674L376.977 181.567C375.724 178.958 374.383 176.371 372.981 173.855C372.504 172.992 372.019 172.137 371.536 171.31C367.82 164.933 363.553 158.755 358.852 152.948L358.739 152.805C346.29 137.457 331.053 124.815 313.451 115.227C300.521 108.185 286.633 103.013 272.171 99.8565C272.139 99.8505 272.107 99.8445 272.074 99.8365C261.014 97.4275 249.594 96.2055 238.13 96.2055C223.649 96.2055 209.325 98.1455 195.557 101.97L195.317 102.034ZM374.92 211.148L374.865 211.148C365.603 211.111 359.508 211.074 358.563 211.049L358.163 211.04L101.385 211.04C97.7536 211.04 94.3886 209.421 92.1496 206.597C89.6716 203.482 88.9626 199.384 90.2556 195.638C91.5016 192.021 92.9366 188.351 94.5206 184.731C95.2946 182.968 96.0956 181.233 96.9016 179.573C101.78 169.536 107.845 159.997 114.928 151.221C114.966 151.171 115.006 151.122 115.045 151.075C126.288 137.183 139.811 125.42 155.258 116.089C167.51 108.678 180.774 102.956 194.68 99.0815L194.889 99.0265C208.878 95.1545 223.424 93.1905 238.13 93.1905C249.808 93.1905 261.443 94.4345 272.711 96.8895C272.746 96.8955 272.781 96.9025 272.819 96.9115C287.535 100.121 301.703 105.395 314.892 112.579C332.869 122.37 348.425 135.286 361.133 150.972L361.261 151.099L361.301 151.181C366.056 157.07 370.376 163.33 374.14 169.791C374.634 170.638 375.132 171.513 375.618 172.392C377.053 174.969 378.428 177.624 379.702 180.278L379.731 180.341C380.3 181.534 380.82 182.659 381.321 183.777C382.453 186.309 383.523 188.905 384.503 191.491C384.952 192.665 385.382 193.846 385.783 194.996C385.871 195.238 385.961 195.497 386.049 195.761C386.493 197.052 386.704 198.373 386.679 199.695L386.589 200.937C385.87 206.717 380.856 211.148 374.92 211.148" fill="#624b4e" fill-rule="nonzero" opacity="1" stroke="none" vectornator:layerName="path"/>
<path d="M475.278 175.261L475.278 175.3C475.037 192.687 463.278 208.477 445.628 213.073C442.286 213.943 438.922 214.361 435.623 214.361C418.015 214.361 403.337 201.297 395.804 184.481C381.806 153.233 365.251 132.043 340.733 113.561C311.459 91.4956 275.878 79.6063 238.402 79.6063C200.926 79.6063 169.682 90.4419 140.384 109.831C116.844 125.409 94.7911 150.498 80.5642 184.593C73.4673 201.601 58.7836 214.378 41.1756 214.378C37.8726 214.378 34.5176 213.96 31.1706 213.09C13.5206 208.499 1.75761 192.704 1.51661 175.313L1.51661 175.274C1.47361 171.811 1.88661 168.279 2.79961 164.765C5.01861 156.237 7.80961 147.898 11.1646 139.771C12.4226 136.717 13.7566 133.694 15.1736 130.704L15.1736 130.7C15.1786 130.687 15.1876 130.678 15.1916 130.666C15.5626 129.976 15.9326 129.287 16.3076 128.598C24.3186 113.898 33.9526 100.098 45.1256 87.3105C46.3226 85.9445 47.5376 84.5885 48.7696 83.2395C49.1746 82.7915 49.5876 82.3435 50.0056 81.8965L50.0056 81.8915C51.1166 80.7075 52.2326 79.5275 53.3646 78.3555L53.3646 78.3515C53.9336 77.7655 54.5066 77.1845 55.0796 76.6025C55.6526 76.0165 56.2246 75.4445 56.8066 74.8715C58.5466 73.1445 60.3206 71.4345 62.1216 69.7505C85.0086 48.3525 111.662 31.5505 141.342 19.8135C172.077 7.65554 204.733 1.49154 238.402 1.49154C272.07 1.49154 304.726 7.65554 335.462 19.8135C365.141 31.5505 391.794 48.3525 414.681 69.7505C416.482 71.4345 418.257 73.1445 419.997 74.8715C420.578 75.4445 421.151 76.0165 421.723 76.6025C422.297 77.1845 422.869 77.7655 423.438 78.3515L423.438 78.3555C424.57 79.5275 425.686 80.7025 426.793 81.8915C427.348 82.4905 427.9 83.0895 428.443 83.6875C429.532 84.8855 430.609 86.0955 431.677 87.3105L431.677 87.3145C432.737 88.5295 433.788 89.7565 434.826 90.9885C444.668 102.73 453.243 115.294 460.496 128.59C460.871 129.279 461.241 129.968 461.611 130.657C461.616 130.67 461.625 130.678 461.629 130.691L461.629 130.696C463.049 133.698 464.393 136.734 465.656 139.805C468.994 147.915 471.78 156.241 473.994 164.743C474.912 168.262 475.325 171.794 475.278 175.261" fill="#462b2f" fill-rule="nonzero" opacity="1" stroke="none" vectornator:layerName="path"/>
<path d="M238.409 0C204.551 0 171.695 6.17876 140.784 18.4062C110.932 30.2114 84.1232 47.1279 61.0968 68.6562C59.2947 70.3413 57.5134 72.0654 55.7531 73.8125C55.2062 74.3509 52.8532 76.7334 52.2843 77.3125C52.2154 77.3826 51.8781 77.75 51.8781 77.75C50.8193 78.8569 49.3349 80.4236 48.9093 80.875C48.8504 80.9375 48.5031 81.3125 48.5031 81.3125C48.2163 81.6223 47.9271 81.9226 47.6593 82.2188C46.4022 83.5953 45.1858 84.9628 44.0031 86.3125C32.7536 99.187 23.0645 113.082 15.0031 127.875C14.7573 128.327 14.0399 129.632 13.9093 129.875C13.9108 129.873 13.8868 129.953 13.8781 129.969C13.8681 129.986 13.8288 130.032 13.8156 130.062C13.7954 130.103 13.8146 130.09 13.7843 130.156L13.7531 130.188C12.3611 133.13 11.0477 136.12 9.78433 139.188C6.40342 147.377 3.58293 155.781 1.34683 164.375C0.412765 167.97-0.0422107 171.634 0.00307678 175.281L0.00307678 175.312C0.25761 193.69 12.7572 209.842 30.7843 214.531C34.2155 215.423 37.7195 215.875 41.1906 215.875C58.6817 215.875 74.2475 203.593 81.9406 185.156C95.2859 153.174 116.312 127.579 141.222 111.094C171.604 90.9872 202.67 81.0938 238.409 81.0938C275.468 81.0938 310.73 92.8259 339.816 114.75C364.219 133.145 380.595 154.187 394.441 185.094C402.715 203.565 418.318 215.875 435.628 215.875C439.099 215.875 442.58 215.422 446.003 214.531C464.03 209.837 476.53 193.665 476.784 175.312L476.784 175.281C476.784 175.271 476.784 175.26 476.784 175.25C476.831 171.608 476.377 167.966 475.441 164.375C473.213 155.819 470.403 147.402 467.034 139.219C465.801 136.219 464.469 133.257 463.066 130.281C463.061 130.273 463.07 130.259 463.066 130.25C463.025 130.15 463.023 130.173 463.003 130.125C462.979 130.073 462.989 130.096 462.972 130.062L462.941 129.938C462.384 128.902 462.13 128.452 461.816 127.875C454.511 114.484 445.873 101.842 435.972 90.0312C435.037 88.922 434.118 87.8492 433.191 86.7812C433.185 86.7753 433.196 86.7559 433.191 86.75C433.191 86.75 432.865 86.3992 432.816 86.3438C432.381 85.853 430.494 83.7088 429.566 82.6875C429.07 82.1416 428.519 81.5665 427.878 80.875C426.927 79.8538 425.942 78.8228 424.941 77.7812C424.935 77.7757 424.946 77.7555 424.941 77.75C424.941 77.75 424.576 77.3863 424.503 77.3125C423.926 76.7248 421.613 74.3835 421.034 73.8125C419.286 72.0769 417.501 70.3491 415.691 68.6562C392.664 47.1281 365.855 30.2116 336.003 18.4062C305.092 6.17881 272.266 2.54313e-06 238.409 0ZM238.409 3C271.89 3 304.351 9.1309 334.909 21.2188C364.413 32.8864 390.909 49.5739 413.659 70.8438C415.448 72.5162 417.21 74.2196 418.941 75.9375C419.504 76.4934 421.171 78.1828 421.941 78.9688C421.941 78.9688 422.288 79.3448 422.347 79.4062C422.825 79.9048 424.731 81.8751 425.691 82.9062C426.323 83.5883 426.858 84.1495 427.347 84.6875C428.247 85.678 429.202 86.7546 430.191 87.875C430.324 88.0261 430.43 88.1582 430.566 88.3125C430.995 88.809 432.756 90.8589 433.691 91.9688C443.462 103.625 451.982 116.097 459.191 129.312C459.497 129.875 459.744 130.338 460.284 131.344C460.289 131.353 460.311 131.368 460.316 131.375C460.325 131.392 460.333 131.448 460.347 131.469C461.744 134.428 463.027 137.393 464.253 140.375C467.57 148.433 470.34 156.7 472.534 165.125C473.406 168.466 473.83 171.867 473.784 175.25L473.784 175.312C473.549 192.303 461.965 207.273 445.253 211.625C442.077 212.452 438.844 212.875 435.628 212.875C419.623 212.875 404.987 201.35 397.159 183.875C383.112 152.517 366.447 131.082 341.628 112.375C312.02 90.0574 276.117 78.0938 238.409 78.0938C202.064 78.0938 170.426 88.1705 139.566 108.594C114.156 125.409 92.7635 151.472 79.1906 184C71.9325 201.394 57.3671 212.875 41.1906 212.875C37.974 212.875 34.7186 212.453 31.5343 211.625C14.8228 207.278 3.23887 192.296 3.00308 175.281C2.96098 171.882 3.38647 168.492 4.25308 165.156C6.45457 156.696 9.23653 148.408 12.5656 140.344C13.8225 137.292 15.1183 134.299 16.5031 131.375C16.5077 131.366 16.5279 131.357 16.5343 131.344L16.5656 131.25C16.5755 131.232 16.6142 131.151 16.6281 131.125C16.8342 130.742 17.3946 129.741 17.6281 129.312C25.5837 114.714 35.1488 101.021 46.2531 88.3125C47.4206 86.9802 48.6294 85.6173 49.8781 84.25C50.1744 83.9222 50.7362 83.2944 51.0968 82.9062C51.2306 82.7637 51.3466 82.6656 51.5031 82.5L51.5031 82.4688C52.6644 81.2396 54.0383 79.8262 54.4406 79.4062C54.4914 79.3539 54.7698 79.0791 54.8781 78.9688C55.6203 78.2119 57.3193 76.4568 57.8468 75.9375C59.5903 74.207 61.3791 72.5083 63.1593 70.8438C85.9095 49.5737 112.374 32.8862 141.878 21.2188C172.436 9.13085 204.927 3 238.409 3Z" fill="#624b4e" fill-rule="nonzero" opacity="1" stroke="none" vectornator:layerName="Curve 1"/>
<path d="M59.7966 148.915C61.2696 147.947 53.7796 140.618 52.5526 139.158C49.4116 135.423 45.4836 132.046 40.8566 130.333C37.8406 129.217 34.2596 131.982 34.7626 135.251C35.0566 137.16 36.9906 137.691 38.3986 138.603C40.6096 140.037 51.4566 146.019 54.5756 147.48C55.7536 148.032 58.3056 149.595 59.6526 148.993C59.7066 148.969 59.7536 148.943 59.7966 148.915M63.0316 99.9779C63.2846 100.275 63.5606 100.557 63.7956 100.842C64.6316 101.857 65.4746 102.867 66.3206 103.873C69.6626 107.849 73.0626 111.775 76.3816 115.769C77.6426 117.287 78.5306 119.147 79.7836 120.674C83.0366 124.643 86.2706 128.645 89.7546 132.382C92.6666 135.505 93.5016 138.904 91.3836 142.547C89.9076 145.085 88.2146 147.502 86.4466 149.829C84.6096 152.245 81.9706 152.273 79.4546 150.686C77.3456 149.356 74.9676 148.476 72.6506 147.561C72.2966 147.421 71.3626 148.041 71.1466 148.53C70.2546 150.549 69.9786 152.629 71.5726 154.478C72.8786 155.991 74.1906 157.5 75.5686 158.937C77.3736 160.82 77.6956 162.999 76.2266 165.046C74.3396 167.676 72.3976 170.263 70.4116 172.81C68.7606 174.928 66.5416 175.243 64.1836 174.046C56.0196 169.901 47.8056 165.864 39.6576 161.686C35.7236 159.668 31.7906 157.605 28.0586 155.212C26.1556 153.992 24.3896 153.887 22.3316 154.022C18.9736 154.242 17.9436 151.631 19.6936 148.964C28.4186 135.663 45.7876 111.541 47.7226 108.606C48.7506 107.048 49.9966 107.038 51.3896 108.042C52.8916 109.125 52.6156 110.465 51.7376 111.714C50.5046 113.468 51.3386 114.475 52.7516 115.287C56.3276 117.339 73.6856 127.179 74.5746 127.341C75.1876 127.454 75.9216 127.172 76.0986 126.575C76.3766 125.645 75.1826 124.838 74.6776 124.196C73.9076 123.215 63.8376 110.987 59.7216 105.72C58.5146 104.175 57.2896 103.374 55.2826 104.103C53.3336 104.812 52.1656 103.648 52.6746 101.52C52.9906 100.205 56.6226 95.2279 57.5866 93.8359C58.3676 92.7079 59.6696 91.1779 60.8946 92.6719C62.4436 94.5629 61.7716 96.5959 62.3066 98.7319C62.4236 99.1989 62.7096 99.6009 63.0316 99.9779" fill="#ffffff" fill-rule="nonzero" opacity="1" stroke="none" vectornator:layerName="path"/>
<path d="M189.103 65.1043C189.087 64.5953 189.021 64.1063 188.892 63.6893C188.558 62.6103 188.231 61.5283 187.895 60.4493C186.676 56.5373 185.376 52.6513 184.211 48.7223C183.037 44.7623 182.003 40.7573 180.876 36.7833C180.163 34.2643 179.239 31.8013 178.686 29.2463C178.088 26.4883 176.257 24.9553 173.5 25.3433C170.904 25.7083 169.795 27.3413 170.186 30.3733C170.346 31.6083 170.48 32.9153 170.967 34.0233C173.906 40.7143 175.936 47.7163 177.792 54.8033C179.073 59.6903 180.687 64.4803 182.172 69.3083C182.634 70.8113 183.648 71.3743 185.123 71.1363C186.994 70.8343 188.187 69.5753 188.748 67.8073C188.989 67.0493 189.132 66.0423 189.103 65.1043M201.972 65.2403C199.906 68.8333 197.21 72.4143 192.976 73.8883C186.921 75.9963 180.859 78.0843 174.849 80.3263C173.246 80.9243 171.534 81.1623 169.939 81.7823C169.082 82.1153 168.336 82.5703 167.605 83.1243C166.943 83.6253 166.197 84.1973 165.404 84.4713C164.732 84.7023 163.977 84.7323 163.319 84.4643C162.798 84.2523 162.491 83.8883 162.173 83.4463C161.926 83.1043 161.627 82.8453 161.455 82.4513C161.088 81.6123 161.06 80.4153 161.861 79.8093C165.129 77.3403 163.579 74.5473 162.694 71.8193C159.929 63.2943 157.013 54.8233 154.281 46.2863C153.441 43.6603 152.962 40.9383 152.218 38.2873C151.95 37.3313 151.699 36.1523 151.062 35.3543C150.466 34.6063 149.277 34.4023 148.498 33.8843C147.672 33.3363 146.958 32.5633 146.671 31.6153C146.384 30.6673 146.598 29.5363 147.347 28.8883C147.933 28.3813 148.753 28.2183 149.507 28.1823C155.229 27.9083 160.693 24.8953 165.838 22.6403C168.364 21.5343 178.558 18.4433 180.078 18.4103C182.853 18.3513 185.711 18.5903 188.267 19.7563C194.294 22.5043 198.828 27.7643 201.584 33.6913C203.672 38.1833 207.881 54.9633 201.972 65.2403" fill="#ffffff" fill-rule="nonzero" opacity="1" stroke="none" vectornator:layerName="path"/>
<path d="M288.605 23.9608C288.263 22.1898 286.98 21.0588 285.394 21.3618C284.366 21.5588 283.028 22.6888 282.711 23.7068C282.02 25.9308 281.916 28.3538 281.528 30.6878C280.307 38.0358 279.078 45.3808 277.824 52.7228C277.575 54.1748 277.926 55.2248 279.319 55.6898C281.363 56.3708 285.37 53.6238 285.694 51.3888C286.571 45.3488 287.46 39.3098 288.375 33.2758C288.608 31.7288 288.9 25.4958 288.605 23.9608M288.243 59.6578C288.56 59.7618 294.271 61.5308 294.983 61.9218C296.153 62.5648 297.119 63.5098 297.84 64.6288C298.633 65.8588 299.14 67.2568 299.486 68.6728C299.728 69.6598 300.715 70.5438 301.534 71.2518C303.085 72.5908 303.198 74.2618 301.388 75.1618C296.084 77.7968 287.202 77.6818 284.013 70.0348C283.057 67.7428 282.416 65.2978 281.717 62.8938C281.125 60.8488 279.797 59.9128 277.88 59.9908C275.823 60.0758 275.586 61.7538 275.271 63.4708C274.885 65.5628 275.129 67.0698 277.162 68.1438C277.822 68.4918 278.496 70.1448 278.235 70.7668C277.847 71.6898 276.28 72.6038 275.308 72.5078C273.882 72.3678 272.384 71.7028 271.062 71.1718C269.66 70.6098 267.809 70.5708 266.318 70.3148C263.066 69.7548 259.813 69.2088 256.56 68.6588C255.974 68.5598 255.234 68.7178 254.822 68.3948C254.041 67.7808 253.16 66.9948 252.903 66.0968C252.785 65.6828 253.936 64.5378 254.697 64.2318C258.434 62.7318 258.373 62.7398 258.529 58.4768C258.63 55.6768 259.035 52.8778 259.454 50.1038C260.791 41.2708 262.178 32.4468 263.597 23.6288C263.818 22.2568 264.082 20.7968 264.72 19.6148C265.71 17.7818 265.269 16.6388 263.657 15.7818C262.35 15.0878 261.21 14.3138 262.067 12.5438C262.948 10.7228 264.515 10.8168 265.94 11.5088C271.35 14.1368 277.126 15.1738 282.932 16.1698C287.273 16.9148 291.65 17.5748 295.896 18.7398C299.24 19.6578 302.303 21.3578 304.285 24.2598C306.33 27.2548 307.525 30.8268 307.69 34.4498C307.788 36.5838 307.837 38.6708 307.428 40.7878C306.997 43.0238 306.269 45.1888 305.641 47.3748C304.897 49.9658 303.202 52.3358 301.627 54.5618C298.957 58.3358 294.755 58.1638 290.87 58.6788C289.612 58.8458 288.491 58.5818 287.372 59.3538C287.66 59.4678 287.953 59.5628 288.243 59.6578" fill="#ffffff" fill-rule="nonzero" opacity="1" stroke="none" vectornator:layerName="path"/>
<path d="M346.094 62.3659C347.07 62.1069 348.885 57.0749 349.474 55.7619C350.404 53.6879 351.506 51.5619 352.096 49.3579C352.341 48.4429 351.911 47.4499 351.624 46.5959C351.364 45.8209 350.98 45.4649 350.525 44.8379C349.35 43.2199 351.279 41.5669 352.875 41.7309C353.531 41.7979 362.344 46.8379 362.762 47.3789C363.18 47.9199 363.398 48.6669 363.138 49.2999C362.876 49.9369 362.196 50.3129 361.52 50.4439C360.844 50.5749 360.147 50.5119 359.459 50.5389C358.771 50.5669 358.047 50.7049 357.532 51.1609C357.083 51.5579 356.854 52.1399 356.639 52.6989C356.007 54.3459 352.015 63.9389 351.313 65.5609C349.598 69.5199 347.871 73.4739 346.152 77.4299C344.678 80.8169 343.2 84.2029 341.763 87.6049C341.344 88.5949 340.629 89.7649 340.469 90.8429C340.291 92.0419 341.116 93.2179 341.38 94.3729C341.575 95.2319 341.539 96.2129 340.981 96.8939C340.415 97.5809 339.432 97.8049 338.552 97.6789C337.671 97.5539 336.864 97.1349 336.075 96.7209C335.192 96.2589 334.303 95.7919 333.517 95.1769C332.731 94.5629 332.045 93.7849 331.689 92.8539C331.343 91.9509 331.323 90.9609 331.309 89.9939C331.3 89.4379 328.773 59.9549 328.28 54.8689C328.207 54.1219 328.365 52.3389 327.201 52.3809C326.8 52.3949 326.441 52.6529 326.194 52.9699C325.946 53.2859 318.111 69.8659 315.298 76.0059C314.481 77.7909 314.166 79.2759 315.378 81.0289C316.56 82.7349 315.762 84.1709 313.663 84.2499C312.925 84.2789 312.192 84.0999 311.518 83.7959C309.612 82.9329 307.712 82.0289 305.906 80.9589C305.309 80.6059 304.644 79.6159 304.701 78.9899C304.772 78.2359 305.479 77.0679 306.085 76.9299C309.152 76.2339 310.021 73.8129 311.365 71.2069C314.282 65.5559 322.786 45.2409 324.576 40.9349C325.142 39.5739 325.662 38.1499 326.47 36.9549C327.549 35.3579 327.524 34.2689 326.005 32.9689C325.521 32.5539 325.205 32.0279 324.816 31.5399C324.443 31.0709 324.343 30.4019 324.599 29.8529C324.922 29.1579 325.708 28.7439 326.475 28.7479C327.149 28.7519 327.657 29.0809 328.243 29.3509C329.101 29.7449 329.921 30.1669 330.75 30.6009C332.323 31.4249 333.849 32.3409 335.445 33.1219C337.125 33.9449 338.933 34.4819 340.609 35.3129C341.345 35.6779 342.315 36.3619 342.46 37.0659C343.656 42.8559 344.86 62.6939 346.094 62.3659" fill="#ffffff" fill-rule="nonzero" opacity="1" stroke="none" vectornator:layerName="path"/>
<path d="M212.284 10.9207C216.299 10.8927 239.398 11.1137 242.155 9.8937C243.731 9.1967 244.836 10.0307 245.194 12.1657C245.459 13.7527 246.718 15.1267 247.283 16.6967C247.644 17.7047 247.941 19.1087 247.536 19.9397C247.183 20.6637 245.685 21.3297 244.913 21.1187C243.997 20.8687 242.894 19.7927 242.611 18.8337C241.616 15.4577 240.897 14.7627 237.556 14.9037C236.14 14.9637 234.718 14.9117 233.305 15.0127C231.26 15.1587 230.713 16.2757 231.171 18.3867C231.507 19.9337 231.326 21.5967 231.555 23.1797C231.778 24.7257 231.973 27.3657 232.631 27.5307C234.153 27.9147 236.2 27.5327 237.574 26.6577C239.869 25.1977 240.716 25.1087 241.829 27.6707C242.667 29.5967 243.512 31.5567 244.001 33.5947C244.198 34.4097 243.679 35.9957 243.07 36.2957C242.303 36.6737 241.096 36.1557 240.111 35.8917C239.85 35.8217 239.684 35.2767 239.513 34.9287C237.963 31.7687 237.205 31.4217 233.908 32.1717C232.221 32.5557 231.653 33.5837 232.107 35.2647C233.885 41.8467 233.377 48.6157 233.596 55.3217C233.658 57.1947 233.508 59.0737 233.501 60.9507C233.494 62.8397 234.679 63.3847 236.185 63.3107C237.817 63.2317 239.479 63.1627 241.061 62.7787C243.339 62.2267 243.679 60.1727 244.101 58.0837C244.385 56.6707 244.939 54.9947 245.922 54.1347C247.671 52.6077 249.811 53.8967 249.705 56.3137C249.646 57.6797 249.137 59.0577 248.66 60.3617C247.993 62.1897 247.115 63.9317 246.425 65.7517C245.752 67.5267 244.57 68.3627 242.787 68.2307C233.306 67.5247 223.867 68.0637 214.432 69.1097C213.557 69.2067 212.07 68.6937 211.809 68.0447C211.476 67.2157 211.759 65.5837 212.378 64.9557C214.563 62.7397 214.392 60.1747 214.263 57.3277C213.806 47.2907 213.509 21.6837 213.237 18.9697C213.131 17.9047 212.08 16.6787 211.143 16.0387C209.978 15.2427 208.62 14.7997 208.946 12.9807C209.301 10.9987 210.843 11.0587 212.284 10.9207" fill="#ffffff" fill-rule="nonzero" opacity="1" stroke="none" vectornator:layerName="path"/>
<path d="M380.346 88.2181C379.756 88.4831 369.628 104.036 365.49 109.835C364.459 111.28 364.689 112.391 366.163 113.339C367.365 114.112 368.573 114.915 369.63 115.885C371.473 117.575 372.152 117.472 373.913 115.671C374.966 114.595 376.333 113.579 377.714 113.246C378.536 113.048 380.252 114.025 380.494 114.831C380.788 115.81 380.304 117.744 379.545 118.255C376.728 120.147 373.696 121.706 370.653 123.184C370.086 123.459 368.579 123.001 368.393 122.509C366.993 118.82 363.569 117.421 360.992 115.169C356.121 110.915 350.867 107.151 345.892 103.022C345.139 102.397 344.519 100.745 344.772 99.8661C345.009 99.0401 346.501 98.0671 347.406 98.1061C350.142 98.2211 351.431 96.6621 352.558 94.4061C353.337 92.8451 354.414 91.4371 355.437 90.0241C358.362 85.9831 361.323 81.9711 364.279 77.9551C367.016 74.2341 369.72 70.4831 372.527 66.8201C374.138 64.7181 375.479 62.7141 374.347 59.7671C374.101 59.1251 374.723 57.4711 375.264 57.2791C376.154 56.9631 377.621 57.0711 378.292 57.6781C381.912 60.9621 385.304 64.5241 388.895 67.8461C390.814 69.6221 392.949 71.1451 395.031 72.7171C397.182 74.3411 399.36 75.9271 401.576 77.4491C403.009 78.4321 403.032 79.5671 402.413 81.0931C401.874 82.4281 401.732 83.9401 401.206 85.2841C400.777 86.3851 400.208 87.5581 399.38 88.3041C398.879 88.7561 397.51 88.8141 396.997 88.4031C396.387 87.9121 395.761 86.4551 396.032 85.8911C396.76 84.3721 397.284 82.6021 396.819 80.9261C396.622 80.2201 396.255 79.5771 395.779 79.0241C395.521 78.7251 395.233 78.4541 394.927 78.2051C394.357 77.7411 392.356 76.2371 391.912 75.9621C391.614 75.7771 391.32 75.5081 390.965 75.4531C390.446 75.3741 389.923 75.6201 389.493 75.8861C388.298 76.6271 387.343 77.7871 386.501 78.8941C386.049 79.4881 385.611 80.1021 385.235 80.7481C384.617 81.8091 383.561 83.6241 383.908 84.0771C384.887 85.3571 386.421 86.7731 387.857 86.9341C391.229 87.3131 391.794 87.8761 390.671 91.2131C390.108 92.8871 389.709 94.6311 389.332 96.3661C388.924 98.2451 387.638 98.4291 386.232 98.1681C384.805 97.9021 384.444 96.7951 384.957 95.4851C385.311 94.5851 385.549 93.6051 385.448 92.6321C385.29 91.1371 384.285 90.0091 383.054 89.2351C382.661 88.9881 382.248 88.7741 381.826 88.5821C381.466 88.4191 380.963 88.0821 380.563 88.1521C380.486 88.1651 380.413 88.1881 380.346 88.2181" fill="#ffffff" fill-rule="nonzero" opacity="1" stroke="none" vectornator:layerName="path"/>
<path d="M105.632 59.5042C105.377 59.5302 105.12 59.5382 104.863 59.5202C103.952 59.4572 103.012 59.0162 102.602 58.2002C102.204 57.4062 102.389 56.4142 102.876 55.6712C103.412 54.8512 104.187 54.3542 105.034 53.9292C105.965 53.4622 106.873 52.7852 107.771 52.2432C108.798 51.6242 109.83 51.0152 110.865 50.4102C112.909 49.2142 114.962 48.0322 116.988 46.8072C118.007 46.1912 118.859 45.2762 119.823 44.5522C120.724 43.8762 121.606 42.9692 122.618 42.7262C123.478 42.5192 124.657 42.9012 125.398 43.4602C125.694 43.6842 125.402 45.2022 125.021 45.9212C123.463 48.8622 123.634 51.0762 125.419 53.7522C137.054 71.1882 145.591 89.1382 148.894 86.9812C151.325 85.3942 152.527 83.5642 151.596 81.1612C151.15 80.0062 150.736 78.8212 150.466 77.6112C150.085 75.8962 150.534 74.6502 152.456 74.4722C154.543 74.2782 156.205 75.3142 156.39 76.9852C156.682 79.6342 156.967 82.2852 157.242 84.9372C157.431 86.7542 156.883 88.1072 155.231 88.9902C151.462 91.0042 147.652 92.9632 144.027 95.2402C140.078 97.7202 136.333 100.556 132.465 103.18C131.799 103.631 130.98 103.944 130.196 104.065C128.038 104.397 126.752 103.06 127.669 101.058C129.174 97.7722 127.843 95.4682 126.249 92.8312C122.845 87.1992 108.802 59.8992 107.94 59.2872C107.485 58.9632 107.013 59.2442 106.521 59.3552C106.228 59.4202 105.931 59.4742 105.632 59.5042" fill="#ffffff" fill-rule="nonzero" opacity="1" stroke="none" vectornator:layerName="path"/>
<path d="M396.027 129.193C395.707 127.679 395.576 126.073 395.385 124.538C395.101 122.254 394.845 119.877 395.048 117.575C395.089 117.114 395.159 116.656 395.2 116.195C395.32 114.847 395.662 113.608 396.122 112.337C396.483 111.339 396.894 110.358 397.363 109.405C398.638 106.818 400.369 104.423 402.58 102.556C404.685 100.778 407.2 99.4652 409.92 98.9582C411.551 98.6542 413.217 98.4832 414.878 98.5562C416.375 98.6232 417.842 98.9242 419.242 99.4612C423.061 100.922 425.819 104.024 427.768 107.527C430.18 111.862 429.698 116.557 425.887 119.46C423.363 121.383 419.847 119.799 419.382 116.527C419.159 114.954 420.021 114.284 421.284 113.806C423.66 112.906 424.384 111.419 423.544 109.401C422.597 107.135 420.444 106.371 418.346 107.558C415.797 109.001 414.958 111.132 415.194 114.73C415.481 119.101 415.724 123.484 415.739 127.863C415.763 135.113 410.393 141.357 404.437 144.868C401.872 146.381 398.709 147.863 395.66 147.746C392.283 147.617 388.818 146.291 386.317 144.002C384.062 141.938 382.434 138.766 381.224 135.988C380.535 134.404 380.07 132.704 380.125 130.964C380.155 130.004 380.344 129.087 380.696 128.194C380.854 127.792 381.024 127.381 381.089 126.951C381.287 125.615 381.048 124.557 382.049 123.446C382.989 122.404 384.413 121.943 385.715 121.547C386.874 121.194 388.793 120.998 389.59 122.155C390.039 122.807 390.093 123.865 389.976 124.614C389.811 125.67 389.381 126.723 388.758 127.591C387.961 128.706 386.781 129.54 386.248 130.838C385.614 132.381 385.739 134.167 386.601 135.598C387.649 137.335 391.214 138.147 393.105 136.932C395.326 135.506 396.969 133.651 396.027 129.193" fill="#ffffff" fill-rule="nonzero" opacity="1" stroke="none" vectornator:layerName="path"/>
<path d="M74.3161 84.6242C72.3021 85.1472 70.8811 85.2362 70.3741 83.2562C69.8401 81.1742 71.2401 80.5282 72.6391 79.5472C75.5411 77.5102 84.2191 69.4612 85.8921 67.8222C86.4211 67.3032 87.1011 66.6962 87.7521 66.6402C88.6311 66.5643 89.7921 66.7082 90.3701 67.2782C90.7911 67.6932 90.7841 69.1532 90.4161 69.7942C89.0781 72.1192 89.7831 73.2453 91.6841 74.9892C94.7451 77.7972 109.283 96.9873 113.826 103.302C115.444 105.552 116.893 107.357 119.954 106.951C121.41 106.757 122.006 108.229 121.501 109.623C121.177 110.517 120.461 111.335 119.75 111.977C116.791 114.648 113.81 117.293 110.827 119.937C109.366 121.231 107.873 122.498 106.436 123.818C105.504 124.675 105.108 125.948 103.748 126.308C102.661 126.595 101.398 126.148 100.797 125.198C99.8561 123.707 101.109 122.801 101.358 121.445C101.63 119.971 100.826 118.737 99.9321 117.653C95.9301 112.797 92.1131 107.768 88.2731 102.765C85.3181 98.9162 82.4161 95.0212 79.5271 91.1162C78.3411 89.5113 77.3041 87.7823 76.0941 86.1992C75.5541 85.4923 74.7551 85.0033 74.3161 84.6242" fill="#ffffff" fill-rule="nonzero" opacity="1" stroke="none" vectornator:layerName="path"/>
<path d="M436.12 156.471C436.751 162.443 433.371 166.511 429.938 170.42C426.67 174.143 422.395 176.344 417.829 177.699C413.455 178.997 409.756 177.261 406.766 173.864C404.377 171.148 402.336 168.235 401.258 164.549C400.093 160.567 401.728 157.619 403.823 154.809C404.953 153.293 409.019 153.576 410.276 154.969C411.487 156.311 411.133 158.67 409.476 159.9C408.81 160.394 407.995 160.668 407.335 161.17C405.672 162.434 405.56 164.192 406.249 166.023C406.94 167.86 408.317 168.323 410.095 167.892C412.734 167.251 414.64 165.721 415.124 162.854C415.499 160.628 415.49 158.33 415.66 156.065C416.02 151.288 417.377 146.813 419.872 142.732C422.815 137.916 427.714 134.719 433.331 134.099C438.855 133.491 444.982 135.044 448.464 139.596C450.959 142.857 452.297 147.073 452.36 151.162C452.427 155.49 451.033 158.974 447.493 161.406C445.055 163.081 443.68 162.973 441.842 160.726C440.617 159.228 440.778 157.333 442.524 155.487C443.456 154.501 444.651 153.788 445.747 152.983C447.143 151.956 448.044 150.741 447.437 148.806C446.745 146.597 445.123 145.276 443.158 145.373C438.427 145.606 436.432 147.862 436.109 153.403C436.05 154.422 436.114 155.449 436.12 156.471" fill="#ffffff" fill-rule="nonzero" opacity="1" stroke="none" vectornator:layerName="path"/>
<path d="M438.903 225.322L37.0576 225.322C17.9816 225.322 2.37261 240.931 2.37261 260.007L2.37261 263.061C2.37261 282.136 17.9816 297.745 37.0576 297.745L438.903 297.745C457.979 297.745 473.584 282.136 473.584 263.061L473.584 260.007C473.584 240.931 457.979 225.322 438.903 225.322" fill="#462b2f" fill-rule="nonzero" opacity="1" stroke="none" vectornator:layerName="path"/>
<path d="M37.0656 223.812C17.1611 223.812 0.878069 240.096 0.878077 260L0.878077 263.062C0.878077 282.966 17.1613 299.25 37.0656 299.25L438.909 299.25C458.813 299.25 475.097 282.967 475.097 263.062L475.097 260C475.097 240.095 458.813 223.813 438.909 223.812L37.0656 223.812ZM37.0656 226.812L438.909 226.812C457.156 226.812 472.097 241.752 472.097 260L472.097 263.062C472.097 281.31 457.156 296.25 438.909 296.25L37.0656 296.25C18.8182 296.25 3.87807 281.309 3.87808 263.062L3.87808 260C3.87808 241.752 18.818 226.813 37.0656 226.812Z" fill="#624b4e" fill-rule="nonzero" opacity="1" stroke="none" vectornator:layerName="Curve 2"/>
<path d="M110.256 282.434C108.124 282.443 107.314 281.624 107.323 279.466C107.361 268.953 107.405 258.439 107.418 247.926C107.422 246.785 107.254 245.643 107.159 244.502C106.923 241.65 107.844 240.389 110.312 240.19C113.589 239.932 114.951 240.931 115.032 243.916C115.153 248.257 114.856 270.249 115.299 274.991C115.657 278.838 114.232 282.425 110.256 282.434M131.989 247.887C130.762 245.32 128.901 242.822 126.739 240.987C124.108 238.752 121.489 236.392 117.393 236.331C107.926 236.198 98.4326 238.093 88.9786 236.034C88.2076 235.866 86.6916 236.434 86.4886 237.003C86.2136 237.766 86.8206 238.89 87.1656 239.815C87.6436 241.099 88.5696 242.309 88.6946 243.614C88.9226 245.949 88.1696 269.866 89.6806 279.385C89.9646 281.163 89.3106 282.12 87.7596 282.981C86.9586 283.425 85.9546 285.031 86.2046 285.505C86.6526 286.362 87.9666 287.271 88.9266 287.279C96.7186 287.331 113.176 287.495 113.607 287.52C118.655 287.805 123.065 286.022 126.381 282.447C130.689 277.804 133.768 272.485 134.953 265.951C136.137 259.404 134.699 253.551 131.989 247.887" fill="#ffffff" fill-rule="nonzero" opacity="1" stroke="none" vectornator:layerName="path"/>
<path d="M379.495 266.261C379.426 270.026 378.22 271.309 374.976 271.383C373.297 271.426 372.689 270.598 372.72 269.005C372.888 260.783 373.025 252.565 373.154 244.347C373.181 242.641 374.292 241.431 376.088 241.31C377.832 241.199 378.831 242.081 378.947 243.787C379.275 248.408 379.547 263.401 379.495 266.261M397.533 281.715C395.534 281.151 394.639 279.777 393.876 278.11C393.036 276.271 391.558 275.013 389.539 274.69C388.639 274.548 387.036 273.945 386.464 273.252C387.777 271.968 389.435 270.99 391.038 270.112C392.028 269.569 393.018 269.013 393.846 268.234C397.024 265.245 398.037 260.369 398.39 256.2C398.407 255.963 398.42 255.73 398.432 255.498C398.557 252.418 397.817 249.356 396.503 246.574C395.173 243.757 393.234 241.224 390.84 239.234C389.707 238.291 388.053 237.602 386.584 237.503C381.811 237.167 377.018 237.141 372.233 237.033C366.646 236.908 361.06 236.814 355.474 236.728C354.837 236.715 354.156 236.732 353.57 236.939C352.058 237.473 351.714 238.92 353.075 239.626C355.543 240.906 355.65 242.658 355.612 245.213C355.439 256.678 355.625 268.148 355.732 279.617C355.754 281.521 355.448 282.796 353.122 282.874C351.378 282.934 350.607 284.571 351.735 285.91C352.339 286.629 353.643 287.073 354.647 287.099C360.298 287.228 365.949 287.206 371.599 287.206C372.448 287.206 373.349 287.194 374.141 286.931C375.773 286.38 376.075 284.726 374.808 283.55C374.399 283.166 373.84 282.947 373.361 282.636C371.876 281.676 371.522 276.874 372.931 275.844C373.388 275.509 374.167 275.366 374.731 275.474C376.588 275.836 377.871 276.723 378.461 278.799C379.456 282.309 380.562 286.087 384.47 287.435C389.314 289.11 393.82 287.65 397.898 284.864C399.342 283.877 399.156 282.172 397.533 281.715" fill="#ffffff" fill-rule="nonzero" opacity="1" stroke="none" vectornator:layerName="path"/>
<path d="M56.4602 274.212C54.3282 274.027 52.1922 273.898 50.0602 273.807C46.6882 273.661 45.9462 272.02 47.1222 268.854C48.6472 264.75 50.7062 253.865 50.6372 253.857C50.8482 252.375 50.9392 250.868 51.3262 249.438C51.4982 248.809 52.2872 248.352 52.7912 247.814C53.3292 248.326 54.0912 248.744 54.3542 249.369C54.7542 250.334 54.8402 251.441 55.0172 252.491C55.3662 254.606 55.6202 256.738 56.0382 258.84C56.8862 263.108 57.8562 267.355 58.7002 271.628C59.0962 273.609 58.3292 274.376 56.4602 274.212M81.4022 282.981C80.6792 282.753 79.7612 282.15 79.5372 281.504C78.7452 279.243 75.3252 263.251 74.0802 257.655C72.6032 251.005 70.4582 244.454 69.0202 237.753C68.7052 236.288 67.8182 235.72 66.4222 235.746C62.4082 235.832 49.6642 235.952 47.3382 235.647C45.8002 235.44 44.5772 235.375 44.1292 237.137C43.7502 238.64 44.7022 239.798 46.5492 239.872C48.6302 239.949 49.2072 240.979 48.7932 242.814C47.1662 250.08 39.7622 274.569 40.0762 280.164C40.1152 280.849 39.1852 281.698 38.5342 282.279C37.9652 282.783 37.0572 282.908 36.4802 283.412C35.9412 283.881 35.2692 284.674 35.3422 285.238C35.4122 285.828 36.2302 286.436 36.8582 286.81C37.3802 287.12 38.0902 287.168 38.7242 287.215C40.9072 287.383 43.0952 287.611 45.2792 287.577C46.0712 287.564 47.1312 287.047 47.5402 286.418C47.8292 285.975 47.3722 284.872 46.9892 284.213C46.6062 283.558 45.6622 283.184 45.3992 282.516C45.0722 281.668 44.8442 280.483 45.2012 279.751C45.5592 279.023 46.6792 278.265 47.4972 278.231C51.1152 278.071 54.7592 277.976 58.3552 278.282C59.4882 278.377 60.8712 279.587 61.4822 280.66C62.2402 281.995 60.9142 282.805 59.7762 283.373C58.6872 283.92 57.7612 284.575 58.1402 286.013C58.5412 287.508 59.6862 287.685 61.0082 287.654C63.8042 287.589 66.5992 287.581 69.3942 287.551C73.1152 287.508 76.8412 287.443 80.5672 287.435C82.1262 287.435 83.3192 286.832 83.6162 285.294C83.9262 283.688 82.6512 283.373 81.4022 282.981" fill="#ffffff" fill-rule="nonzero" opacity="1" stroke="none" vectornator:layerName="path"/>
<path d="M344.806 240.285C342.165 241.65 342.398 243.606 342.657 246.087C343.096 250.273 342.885 269.754 342.747 275.263C342.665 278.403 342.669 281.478 340.323 284.135C338.445 286.263 336.145 287.271 333.581 287.439C329.232 287.719 324.843 287.766 320.489 287.568C315.798 287.348 311.069 283.468 310.767 278.872C310.268 271.395 311.331 247.263 311.741 242.71C311.866 241.327 311.181 240.582 309.828 240.328C308.678 240.117 307.089 240.195 307.287 238.416C307.485 236.65 308.962 236.163 310.487 236.215C314.708 236.37 318.92 236.697 323.141 236.792C324.653 236.827 326.169 236.314 327.694 236.189C328.452 236.124 329.33 235.939 329.993 236.43C330.658 236.926 331.278 238.855 330.545 239.514C328.452 241.396 329.08 243.476 329.18 245.806C329.459 252.388 328.671 274.289 328.456 278.648C328.288 282.051 329.313 283.054 332.582 283.343C334.744 283.532 336.131 282.567 336.562 280.577C338.453 273.07 337.971 252.883 337.902 243.795C337.893 242.563 337.621 241.353 336.773 240.423C335.947 239.523 334.396 239.122 334.749 237.572C335.029 236.357 336.231 236.155 337.282 236.09C339.249 235.973 341.257 236.004 343.212 236.245C344.138 236.357 345.473 236.912 345.732 237.601C345.999 238.317 345.456 239.949 344.806 240.285" fill="#ffffff" fill-rule="nonzero" opacity="1" stroke="none" vectornator:layerName="path"/>
<path d="M260.065 240.897C259.384 241.686 259.246 242.693 259.281 243.697C259.474 249.059 259.126 254.197 258.423 279.407C258.372 281.237 258.759 282.503 259.974 283.787C260.224 284.05 260.414 284.373 260.573 284.722C261.016 285.691 260.573 286.832 259.59 287.25C259.216 287.409 258.833 287.543 258.441 287.62C257.476 287.801 256.442 287.556 255.439 287.573C252.984 287.616 251.623 286.414 250.524 284.205C248.56 280.242 246.205 276.478 243.999 272.636C240.842 267.131 237.672 261.631 234.511 256.127C234.093 255.403 233.559 254.899 232.607 255.063C230.742 255.382 231.293 257.488 231.297 258.857C231.306 260.688 231.323 262.519 231.34 264.349C231.379 268.027 231.431 271.701 231.461 275.379C231.47 276.344 231.418 277.309 231.328 278.27C231.117 280.483 231.194 282.452 233.266 283.869C233.839 284.261 234.282 285.6 234.041 286.208C233.8 286.824 232.65 287.371 231.862 287.422C229.872 287.556 227.839 287.569 225.879 287.284C225.397 287.215 224.94 286.991 224.492 286.725C223.609 286.19 223.312 285.041 223.842 284.157C224.036 283.835 224.221 283.511 224.398 283.18C224.923 282.168 225.759 281.126 225.789 280.079C225.948 274.725 225.785 269.363 225.931 264.009C226.125 257.04 226.5 250.076 226.81 243.111C226.887 241.431 226.306 240.363 224.488 240.135C223.191 239.976 221.839 239.342 222.223 237.908C222.403 237.228 223.959 236.517 224.901 236.495C229.627 236.392 234.356 236.495 239.085 236.556C240.829 236.582 242.035 237.275 242.569 239.127C242.871 240.178 243.625 241.112 244.223 242.064C246.118 245.075 250.886 254.641 252.48 255.227C252.548 255.252 252.609 255.27 252.669 255.278C254.224 255.563 253.677 249.442 253.677 248.731C253.681 246.763 253.565 244.787 253.367 242.827C253.272 241.909 252.312 241.104 251.864 240.191C251.524 239.498 250.976 238.808 251.085 237.985C251.244 236.784 252.682 236.469 253.686 236.392C255.581 236.25 257.506 236.228 259.397 236.379C260.517 236.469 261.882 236.978 261.968 238.278C262.054 239.596 260.788 240.066 260.065 240.897" fill="#ffffff" fill-rule="nonzero" opacity="1" stroke="none" vectornator:layerName="path"/>
<path d="M217.73 278.653C216.549 281.405 215.279 284.132 213.802 286.729C213.453 287.345 212.122 287.681 211.248 287.676C204.813 287.659 198.382 287.466 191.952 287.444C189.342 287.431 186.728 287.827 184.122 287.784C183.161 287.767 182.05 287.211 181.305 286.561C180.46 285.829 180.392 284.666 181.563 284.05C183.773 282.887 184.845 281.082 184.841 278.864C184.824 269.414 184.694 245.726 185.052 243.391C185.293 241.819 184.798 240.738 183.329 240.101C182.937 239.928 182.451 239.73 182.27 239.403C181.882 238.696 181.288 237.766 181.49 237.176C181.68 236.62 182.787 236.073 183.497 236.056C187.214 235.987 190.936 236.164 194.657 236.116C200.493 236.043 206.334 235.931 212.165 235.69C213.259 235.643 214.667 235.578 215.378 236.586C215.735 237.094 215.869 237.727 215.999 238.326C216.218 239.342 216.597 240.35 217.058 241.285C217.066 241.306 217.075 241.324 217.088 241.345C217.359 241.897 217.674 242.431 217.842 243.025C218.01 243.615 218.018 244.283 217.708 244.813C217.433 245.278 216.937 245.579 216.416 245.738C215.507 246.01 214.405 246.07 213.599 245.497C213.194 245.213 212.932 244.761 212.781 244.287C212.656 243.895 212.66 243.486 212.565 243.09C212.501 242.827 212.346 242.599 212.234 242.349C212.053 241.94 211.765 241.074 211.239 240.988C208.551 240.561 205.812 240.355 203.086 240.329C202.772 240.329 202.22 241.918 202.168 242.797C202.061 244.623 202.336 246.471 202.237 248.297C202.104 250.743 203.714 252.122 206.049 251.308C206.919 251.002 207.72 250.498 208.547 250.071C210.158 249.24 211.084 249.809 211.657 251.441C212.243 253.104 212.918 254.736 213.625 256.347C214.267 257.82 213.857 259.654 212.605 260.072C210.946 260.619 209.921 259.711 209.516 258.242C208.883 255.929 207.345 255.003 205.097 254.943C203.9 254.913 202.772 255.421 202.526 256.687C202.384 257.411 202.534 258.233 202.547 258.966C202.56 259.99 202.586 276.99 202.323 278.382C201.63 282.017 202.685 283.033 206.626 282.831C210.959 282.611 211.282 282.331 212.372 278.068C212.759 276.551 213.324 275.16 215.283 275.195C217.364 275.229 218.54 276.754 217.73 278.653" fill="#ffffff" fill-rule="nonzero" opacity="1" stroke="none" vectornator:layerName="path"/>
<path d="M177.015 239.273C174.693 240.061 174.319 241.849 173.862 243.916C171.756 253.456 169.43 262.944 167.32 272.485C166.506 276.172 165.946 279.932 165.506 283.683C165.257 285.785 164.145 286.94 162.293 287.077C158.58 287.353 154.847 287.396 151.12 287.409C149.669 287.413 148.769 286.479 148.515 285.01C147.15 277.11 145.84 269.203 144.402 261.316C143.855 258.332 143.239 255.36 142.61 252.392C142.037 249.679 141.145 246.905 141.042 244.131C141.016 243.477 140.939 242.817 140.723 242.197C140.258 240.849 139.147 240.04 137.803 239.665C137.261 239.514 136.64 238.252 136.74 237.606C136.834 236.969 137.713 236.288 138.402 235.948C138.988 235.659 139.797 235.772 140.508 235.801C145.289 236.012 150.07 236.31 154.855 236.435C156.259 236.473 157.684 236.077 159.084 235.806C160.45 235.543 161.776 235.81 161.996 237.206C162.134 238.071 161.522 239.462 160.794 239.971C159.321 241.004 158.572 242.146 159.39 243.744C160.82 250.247 161.57 255.037 162.065 260.774C162.177 262.079 162.327 263.379 162.461 264.68C162.759 264.715 163.051 264.75 163.344 264.779C163.671 264.121 164.145 263.496 164.305 262.798C165.037 259.598 165.631 256.359 166.376 253.159C167.109 250.023 167.905 246.901 168.775 243.804C169.288 241.982 169.03 240.66 167.289 239.592C166.648 239.2 166.415 238.149 165.997 237.395C166.82 236.943 167.617 236.172 168.474 236.099C171.015 235.892 173.582 235.857 176.132 235.987C176.864 236.025 177.868 236.702 178.161 237.352C178.346 237.766 177.592 239.079 177.015 239.273" fill="#ffffff" fill-rule="nonzero" opacity="1" stroke="none" vectornator:layerName="path"/>
<path d="M440.409 278.054C440.405 278.196 440.423 278.36 440.362 278.48C438.949 281.418 437.687 284.446 435.99 287.211C435.59 287.857 433.527 288.042 432.536 287.655C429.516 286.47 426.514 286.845 423.453 287.052C420.464 287.258 417.466 287.254 414.468 287.319C412.25 287.37 410.032 287.413 407.813 287.396C407.116 287.392 406.323 287.34 405.737 287.013C405.113 286.664 404.334 286.001 404.264 285.402C404.204 284.833 404.838 283.877 405.406 283.606C407.391 282.667 407.848 281.271 407.826 279.127C407.719 269.169 408.124 245.971 408.476 244.377C408.791 242.96 408.455 242.047 407.211 241.324C406.548 240.94 405.824 240.428 405.492 239.786C405.186 239.183 405.108 238.205 405.397 237.632C405.63 237.171 406.569 236.853 407.198 236.848C413.064 236.771 432.325 236.418 436.094 236.228C437.403 236.163 438.282 236.603 438.661 237.964C439.096 239.536 439.767 241.052 440.082 242.646C440.289 243.692 440.328 244.963 439.892 245.876C439.608 246.471 438.346 246.871 437.532 246.854C437.007 246.845 436.09 245.936 436.059 245.393C435.874 241.913 433.772 240.918 430.736 240.923C430.163 240.927 429.595 240.802 429.021 240.785C425.623 240.699 425.399 240.923 425.472 244.257C425.481 244.614 425.451 244.971 425.438 245.333C425.352 246.617 425.257 247.905 425.176 249.192C425.042 251.234 425.912 252.156 427.967 251.888C429.086 251.746 430.159 251.256 431.248 250.92C433.204 250.317 434.621 251.208 435.064 253.189C435.34 254.426 435.754 255.644 436.197 256.833C436.701 258.194 436.835 259.486 435.207 260.025C433.699 260.524 432.402 259.951 432.084 258.306C431.709 256.364 430.744 255.425 428.733 255.476C425.821 255.55 425.326 256.394 425.481 259.331C425.692 263.315 425.528 267.329 425.412 271.322C425.326 274.389 424.913 277.455 424.99 280.509C425.008 281.254 426.265 282.408 427.135 282.616C431.382 283.615 434.031 281.758 434.81 277.455C435.168 275.491 436.585 275.19 438.179 275.25C439.931 275.319 440.444 276.504 440.409 278.054" fill="#ffffff" fill-rule="nonzero" opacity="1" stroke="none" vectornator:layerName="path"/>
<path d="M303.914 245.557C303.057 246.237 301.661 247.038 300.851 246.763C300.02 246.478 299.254 245.023 299.073 243.976C298.625 241.345 297.807 239.867 296.364 239.971C294.908 240.074 294.188 241.835 294.258 244.347C294.399 249.36 294.318 277.545 293.956 278.846C293.465 280.634 293.629 282.081 295.391 283.097C296.523 283.752 297.358 284.669 296.704 286.095C296.036 287.542 294.83 287.529 293.418 287.349C291.601 287.116 289.739 287.141 287.9 287.137C283.602 287.129 279.308 287.236 275.014 287.133C274.243 287.111 273.248 286.931 272.852 285.802C272.417 284.661 273.248 283.954 273.863 283.524C275.771 282.193 275.578 280.638 275.509 278.519C275.294 272.028 276.517 248.77 276.767 243.644C276.866 241.573 275.625 240.108 274.023 240.216C272.046 240.345 271.452 241.706 271.34 243.476C271.197 245.772 270.302 246.612 268.355 246.405C266.301 246.19 265.572 244.825 266.365 242.899C267.166 240.94 267.726 238.876 268.626 236.969C268.928 236.331 270.121 235.491 270.603 235.655C277.107 237.834 283.873 236.305 290.48 237.128C293.427 237.494 296.566 236.602 299.586 236.077C301.911 235.672 302.311 236.004 302.476 238.325C302.561 239.497 303.221 240.69 303.841 241.749C304.616 243.072 305.388 244.39 303.914 245.557" fill="#ffffff" fill-rule="nonzero" opacity="1" stroke="none" vectornator:layerName="path"/>
</g>
</svg>
